<svg width="40" height="40" viewBox="0 0 40 40" fill="none" xmlns="http://www.w3.org/2000/svg">
<g clip-path="url(#clip0_2080_49)">
<path fill-rule="evenodd" clip-rule="evenodd" d="M39.1406 11.7803V15.3385H0.859375V11.7803H13.7991C13.8644 11.9086 13.9505 12.0284 14.0567 12.1348L15.2264 13.3044C15.6997 13.7777 16.4413 13.8501 16.9972 13.4773L17.2665 13.2968L17.7358 13.4912L17.7985 13.8093C17.9282 14.4671 18.5024 14.9392 19.173 14.9392H20.8272C21.4977 14.9392 22.072 14.4672 22.2016 13.8093L22.2644 13.4912L22.7337 13.2968L23.0029 13.4773C23.5588 13.8501 24.3005 13.7777 24.7738 13.3044L25.9435 12.1348C26.0498 12.0284 26.1359 11.9086 26.2012 11.7803H39.1405H39.1406ZM37.4527 36.5933H36.5573V16.4323H3.44305V36.5933H2.54773C1.98563 36.5933 1.52578 37.0531 1.52578 37.6152V39.1234H8.5657V37.6152C8.5657 37.0531 8.10586 36.5933 7.54375 36.5933H6.64836V18.5791H33.352V36.5933H32.4566C31.8945 36.5933 31.4347 37.0531 31.4347 37.6152V39.1234H38.4746V37.6152C38.4746 37.0531 38.0148 36.5933 37.4527 36.5933ZM14.9602 25.3799L18.9061 29.3259C18.9588 29.2541 19.0173 29.1856 19.082 29.121L20.0905 28.1124C20.1577 28.0453 20.2291 27.9847 20.3037 27.9304L16.3567 23.9834L16.1204 23.1013L12.5816 20.479L11.4558 21.6048L14.078 25.1436L14.9602 25.3799ZM18.9391 31.4916C18.7155 31.2065 18.5916 30.8714 18.5645 30.531L17.3941 29.3606L14.8942 31.8605C13.8119 31.5675 12.6072 31.8458 11.7574 32.6955C10.8849 33.568 10.615 34.8147 10.9473 35.9189L13.0245 33.8416L14.7303 34.2987L15.1873 36.0044L13.1101 38.0817C14.2143 38.414 15.4723 38.1327 16.3334 37.2716C17.1945 36.4105 17.4615 35.2171 17.1684 34.1348L19.257 32.0462C19.1697 31.8552 19.0635 31.6504 18.9391 31.4916ZM26.9776 24.2143L25.2719 23.7573L24.8148 22.0515L26.892 19.9742C25.7879 19.6419 24.5412 19.9119 23.6687 20.7843C22.8189 21.6341 22.5406 22.8387 22.8337 23.9211L20.3374 26.4173L21.5163 27.5962C21.8512 27.6259 22.1804 27.7494 22.4611 27.9696C22.6198 28.0941 22.8246 28.2002 23.0156 28.2876L25.1079 26.1953C26.1902 26.4884 27.3836 26.2214 28.2447 25.3603C29.1058 24.4992 29.3871 23.2412 29.0548 22.1369L26.9775 24.2142L26.9776 24.2143ZM24.1229 30.3182C23.6886 29.8839 23.2469 29.5829 22.6839 29.3372C22.282 29.1618 21.993 28.9926 21.7861 28.8302C21.5074 28.6116 21.1143 28.6354 20.8638 28.8859L19.8552 29.8944C19.6048 30.1449 19.5811 30.538 19.7997 30.8167C19.962 31.0237 20.1312 31.3126 20.3066 31.7145C20.5523 32.2775 20.8534 32.7192 21.2876 33.1535L25.1245 36.9904C25.9041 37.77 27.18 37.7701 27.9597 36.9904C28.7394 36.2107 28.7395 34.9348 27.9597 34.1551L24.1228 30.3183L24.1229 30.3182ZM27.5782 6.53398V8.18819C27.5782 8.85866 27.1061 9.43296 26.4483 9.56265L26.1303 9.62538L25.9359 10.0948L26.1164 10.3641C26.1849 10.4663 26.2384 10.5748 26.2771 10.6867H36.5572V5.11249H26.2099L26.4483 5.15952C27.1061 5.28921 27.5782 5.86343 27.5782 6.53398ZM13.8838 10.364L14.0643 10.0948L13.8698 9.62538L13.5519 9.56265C12.894 9.43296 12.422 8.85874 12.422 8.18819V6.53398C12.422 5.86343 12.894 5.28929 13.5519 5.15952L13.7902 5.11249H3.44305V10.6866H13.7231C13.7619 10.5746 13.8153 10.4661 13.8838 10.3639L13.8838 10.364ZM14.6561 6.05663L15.299 4.50491L14.7921 3.74913C14.7095 3.62601 14.7252 3.46562 14.83 3.36085L15.9998 2.19116C16.1045 2.0864 16.2649 2.07069 16.388 2.15327L17.1437 2.66007L18.6955 2.01718L18.8715 1.12444C18.9002 0.979053 19.0246 0.876709 19.1728 0.876709H20.827C20.9752 0.876709 21.0998 0.979053 21.1284 1.12444L21.3045 2.01718L22.8562 2.66007L23.612 2.15327C23.7351 2.07069 23.8954 2.0864 24.0002 2.19116L25.17 3.36085C25.2748 3.46569 25.2905 3.62601 25.2079 3.74913L24.7011 4.50491L25.344 6.05663L26.2366 6.23265C26.382 6.26132 26.4844 6.38577 26.4844 6.53398V8.18819C26.4844 8.3364 26.382 8.46093 26.2366 8.4896L25.344 8.66562L24.7011 10.2173L25.2079 10.9731C25.2905 11.0962 25.2748 11.2566 25.17 11.3614L24.0002 12.5311C23.8955 12.6358 23.7351 12.6516 23.612 12.5691L22.8562 12.0622L21.3045 12.7051L21.1284 13.5978C21.0998 13.7432 20.9752 13.8455 20.827 13.8455H19.1728C19.0246 13.8455 18.9001 13.7432 18.8714 13.5978L18.6954 12.7051L17.1437 12.0623L16.3878 12.5691C16.2647 12.6516 16.1044 12.636 15.9995 12.5312L14.8298 11.3615C14.725 11.2566 14.7094 11.0963 14.792 10.9732L15.2988 10.2174L14.6559 8.66569L13.7633 8.48968C13.6178 8.46101 13.5155 8.33655 13.5155 8.18827V6.53405C13.5155 6.38577 13.6179 6.2614 13.7633 6.23273L14.6559 6.05671L14.6561 6.05663ZM16.6747 7.36108C16.6747 9.19765 18.1635 10.6865 20.0001 10.6865C21.8366 10.6865 23.3255 9.19765 23.3255 7.36108C23.3255 5.52452 21.8366 4.03569 20.0001 4.03569C18.1635 4.03569 16.6747 5.52452 16.6747 7.36108Z" fill="white"/>
</g>
<defs>
<clipPath id="clip0_2080_49">
<rect width="40" height="40" fill="white"/>
</clipPath>
</defs>
</svg>
