<svg width="42" height="42" viewBox="0 0 42 42" fill="none" xmlns="http://www.w3.org/2000/svg">
<path d="M38.6846 11.97L21.6221 2.78249C21.2349 2.5738 20.7664 2.5738 20.3792 2.78249L3.31669 11.97C2.89012 12.1984 2.625 12.642 2.625 13.125V38.0625C2.625 38.787 3.21169 39.375 3.9375 39.375H38.0625C38.7883 39.375 39.375 38.787 39.375 38.0625V13.125C39.375 12.642 39.1099 12.1984 38.6846 11.97ZM11.8125 26.25H30.1875V30.1875H11.8125V26.25ZM30.1875 23.625H11.8125V19.6875H30.1875V23.625ZM11.8125 36.75V32.8125H30.1875V36.75H11.8125ZM36.75 36.75H32.8125V18.375C32.8125 17.6505 32.2258 17.0625 31.5 17.0625H10.5C9.77419 17.0625 9.1875 17.6505 9.1875 18.375V36.75H5.25V13.9086L21 5.42849L36.75 13.9086V36.75Z" fill="white"/>
</svg>
