<svg width="40" height="40" viewBox="0 0 40 40" fill="none" xmlns="http://www.w3.org/2000/svg">
<g clip-path="url(#clip0_2080_59)">
<path d="M3.75 40.0001H8.4375C8.76903 40.0001 9.08697 39.8684 9.32139 39.634C9.55581 39.3995 9.6875 39.0816 9.6875 38.7501V21.8751H30.3125V38.7501C30.3125 39.0816 30.4442 39.3995 30.6786 39.634C30.913 39.8684 31.231 40.0001 31.5625 40.0001H36.25C36.5815 40.0001 36.8995 39.8684 37.1339 39.634C37.3683 39.3995 37.5 39.0816 37.5 38.7501V13.7501C37.5005 13.5581 37.4568 13.3686 37.3722 13.1963C37.2877 13.024 37.1646 12.8734 37.0125 12.7563L20.7625 0.256324C20.5439 0.0880642 20.2758 -0.00317383 20 -0.00317383C19.7242 -0.00317383 19.4561 0.0880642 19.2375 0.256324L2.9875 12.7563C2.8354 12.8734 2.7123 13.024 2.62776 13.1963C2.54322 13.3686 2.49951 13.5581 2.5 13.7501V38.7501C2.5 39.0816 2.6317 39.3995 2.86612 39.634C3.10054 39.8684 3.41848 40.0001 3.75 40.0001ZM9.6875 19.3751V16.8751H30.3125V19.3751H9.6875ZM5 14.3751L20 2.82507L35 14.3751V37.5001H32.8125V15.6251C32.8125 15.2936 32.6808 14.9756 32.4464 14.7412C32.212 14.5068 31.894 14.3751 31.5625 14.3751H8.4375C8.10598 14.3751 7.78804 14.5068 7.55362 14.7412C7.3192 14.9756 7.1875 15.2936 7.1875 15.6251V37.5001H5V14.3751Z" fill="white"/>
<path d="M24.8 32.9501C25.0477 32.9503 25.2899 32.8768 25.4959 32.7391C25.7018 32.6014 25.8622 32.4056 25.9566 32.1765C26.051 31.9475 26.0753 31.6955 26.0262 31.4527C25.9772 31.2098 25.8571 30.987 25.6812 30.8126C24.1733 29.3081 22.1301 28.4631 20 28.4631C17.8698 28.4631 15.8267 29.3081 14.3187 30.8126C14.2026 30.9287 14.1105 31.0666 14.0476 31.2183C13.9847 31.3701 13.9524 31.5327 13.9524 31.6969C13.9524 31.8612 13.9847 32.0238 14.0476 32.1756C14.1104 32.3273 14.2026 32.4652 14.3187 32.5813C14.4349 32.6975 14.5727 32.7896 14.7245 32.8524C14.8762 32.9153 15.0388 32.9476 15.2031 32.9476C15.3673 32.9476 15.53 32.9153 15.6817 32.8524C15.8334 32.7896 15.9713 32.6975 16.0875 32.5813C17.1265 31.5463 18.5334 30.9651 20 30.9651C21.4666 30.9651 22.8734 31.5463 23.9125 32.5813C24.0287 32.6983 24.167 32.7911 24.3194 32.8544C24.4717 32.9177 24.635 32.9502 24.8 32.9501Z" fill="white"/>
<path d="M22.5814 36.1063C22.8284 36.1065 23.0699 36.0336 23.2754 35.8966C23.481 35.7597 23.6413 35.5649 23.7363 35.3369C23.8312 35.1089 23.8565 34.8578 23.8089 34.6155C23.7613 34.3731 23.643 34.1503 23.4689 33.9751C22.5488 33.0553 21.3011 32.5386 20.0001 32.5386C18.6991 32.5386 17.4514 33.0553 16.5314 33.9751C16.2968 34.2096 16.165 34.5278 16.165 34.8595C16.165 35.1912 16.2968 35.5093 16.5314 35.7438C16.7659 35.9784 17.084 36.1102 17.4157 36.1102C17.7474 36.1102 18.0656 35.9784 18.3001 35.7438C18.7624 35.3151 19.3696 35.0769 20.0001 35.0769C20.6306 35.0769 21.2378 35.3151 21.7001 35.7438C21.9345 35.9763 22.2513 36.1066 22.5814 36.1063Z" fill="white"/>
<path d="M27.3688 29.9251C27.6152 29.924 27.8559 29.8501 28.0605 29.7127C28.2651 29.5753 28.4245 29.3805 28.5187 29.1527C28.6128 28.9249 28.6376 28.6744 28.5898 28.4326C28.542 28.1909 28.4238 27.9686 28.25 27.7938C26.0602 25.6092 23.0932 24.3823 20 24.3823C16.9068 24.3823 13.9399 25.6092 11.75 27.7938C11.5341 28.0312 11.4178 28.3425 11.4251 28.6633C11.4325 28.9841 11.5629 29.2898 11.7894 29.5171C12.0159 29.7444 12.3211 29.8759 12.6418 29.8844C12.9626 29.8928 13.2743 29.7776 13.5125 29.5626C15.2348 27.8451 17.5678 26.8806 20 26.8806C22.4323 26.8806 24.7653 27.8451 26.4875 29.5626C26.7219 29.795 27.0387 29.9253 27.3688 29.9251Z" fill="white"/>
<path d="M20 38.7876C20.6904 38.7876 21.25 38.228 21.25 37.5376C21.25 36.8472 20.6904 36.2876 20 36.2876C19.3096 36.2876 18.75 36.8472 18.75 37.5376C18.75 38.228 19.3096 38.7876 20 38.7876Z" fill="white"/>
</g>
<defs>
<clipPath id="clip0_2080_59">
<rect width="40" height="40" fill="white"/>
</clipPath>
</defs>
</svg>
