<svg width="54" height="54" viewBox="0 0 54 54" fill="none" xmlns="http://www.w3.org/2000/svg">
<g clip-path="url(#clip0_2080_423)">
<path d="M12.337 9.96376C12.7738 9.96376 13.128 9.60959 13.128 9.17274C13.128 8.73589 12.7738 8.38172 12.337 8.38172C11.9001 8.38172 11.546 8.73589 11.546 9.17274C11.546 9.60959 11.9 9.96376 12.337 9.96376ZM6.00887 9.96376C6.44572 9.96376 6.79989 9.60959 6.79989 9.17274C6.79989 8.73589 6.44572 8.38172 6.00887 8.38172C5.57202 8.38172 5.21786 8.73589 5.21786 9.17274C5.21786 9.60959 5.57191 9.96376 6.00887 9.96376ZM9.17293 9.96376C9.60979 9.96376 9.96395 9.60959 9.96395 9.17274C9.96395 8.73589 9.60979 8.38172 9.17293 8.38172C8.73608 8.38172 8.38192 8.73589 8.38192 9.17274C8.38192 9.60959 8.73598 9.96376 9.17293 9.96376ZM8.99944 18.3436C9.00429 18.3437 9.00914 18.3437 9.01399 18.3437L16.1657 18.3455H16.1661C16.6603 18.3455 17.0797 18.0254 17.2102 17.5489C17.3407 17.0721 17.1426 16.5829 16.7173 16.3313L15.6296 15.6878C17.3779 13.955 18.3612 11.5908 18.3456 9.11378C18.3142 4.16013 14.2598 0.0722639 9.30762 0.000967067C4.17604 -0.0727556 0 4.07818 0 9.17295C0 14.0586 4.02553 18.2378 8.99944 18.3436ZM3.84434 3.76662C5.30297 2.32887 7.23094 1.55421 9.28494 1.58279C13.3827 1.64174 16.7376 5.02455 16.7635 9.1237C16.7775 11.3353 15.8292 13.4384 14.1615 14.8937C13.8826 15.1369 13.7366 15.5019 13.7703 15.8701C13.8041 16.2381 14.0143 16.5701 14.3323 16.7582L14.3402 16.7628L9.0218 16.7615C4.91041 16.6826 1.58203 13.2956 1.58203 9.17295C1.58203 7.12464 2.38549 5.20469 3.84434 3.76662ZM53.209 52.418H52.418V40.6382C52.418 37.552 50.5943 34.7494 47.7631 33.4945L43.5943 31.7077C44.6087 31.3876 45.5252 30.8168 46.2708 30.0251C47.3959 28.8306 48.041 27.2099 48.041 25.5784C48.041 24.0793 47.5173 22.6643 46.5262 21.4861C45.2865 20.0141 44.6038 18.1433 44.6038 16.2181V12.4275C44.6038 9.10756 43.3108 5.98695 40.9633 3.64059C38.6158 1.29285 35.4949 1.78485e-05 32.1754 1.78485e-05C25.3228 1.78485e-05 19.748 5.57488 19.748 12.4274V16.0945C19.7484 18.0866 18.9655 19.9881 17.6933 21.5209C16.0922 23.4499 15.7596 26.0581 16.8253 28.3274C17.6163 30.012 19.0431 31.2223 20.7512 31.7345L16.6115 33.5347C13.7072 34.7568 11.8305 37.5824 11.8305 40.7332V50.045C11.8305 50.4819 12.1846 50.8361 12.6216 50.8361C13.0585 50.8361 13.4126 50.4819 13.4126 50.045V40.7332C13.4126 38.2207 14.9091 35.9674 17.2338 34.9892L22.4227 32.7328V37.4942H20.0387C19.3669 37.4942 18.7239 37.7806 18.2745 38.2801C17.8252 38.7796 17.6081 39.4492 17.679 40.1173L18.9829 52.418H0.791016C0.354059 52.418 0 52.7722 0 53.209C0 53.6459 0.354059 54 0.791016 54H53.209C53.6459 54 54 53.6459 54 53.209C54 52.7722 53.6459 52.418 53.209 52.418ZM45.3158 22.5047C46.0637 23.3938 46.459 24.4566 46.459 25.5783C46.459 26.8109 45.9707 28.0363 45.1192 28.9403C44.2177 29.8975 42.9791 30.4246 41.6318 30.4246H40.6009L39.2468 29.8442C38.064 29.3369 37.2548 28.2494 37.0895 26.9976C39.5301 25.6835 41.193 23.1043 41.193 20.1435V14.1968C41.4245 14.2126 41.6558 14.2211 41.8865 14.2211C42.2669 14.2211 42.6459 14.1995 43.0219 14.1569V16.2179C43.0218 18.5155 43.8366 20.7483 45.3158 22.5047ZM32.3676 34.9923C29.5378 35.0424 26.7293 34.6838 24.0047 33.9282V32.0448L24.2334 31.9453C24.2352 31.9446 24.237 31.9438 24.2389 31.943L25.6501 31.3294C27.221 30.6465 28.331 29.2478 28.6676 27.6132C29.3564 27.8135 30.0834 27.923 30.836 27.923H33.4136C34.169 27.923 34.8988 27.8127 35.5899 27.6109C35.9375 29.238 37.0518 30.6241 38.6234 31.2983L40.1295 31.9438C40.1304 31.9442 40.1314 31.9446 40.1323 31.9449L40.2439 31.9927V33.7727C37.6839 34.5354 35.0372 34.9457 32.3676 34.9923ZM40.2437 35.4197V37.4943H24.0047V35.5663C26.5691 36.2387 29.202 36.5789 31.8527 36.5789C32.0335 36.5789 32.2144 36.5773 32.3953 36.5742C35.052 36.5278 37.687 36.1395 40.2437 35.4197ZM43.0218 12.5618C40.8429 12.8561 38.3868 12.2725 36.6947 10.9614C36.3495 10.6939 35.8526 10.7568 35.5849 11.1022C35.3174 11.4475 35.3804 11.9444 35.7257 12.2119C36.832 13.069 38.1663 13.6727 39.611 13.9771V18.2834C39.2309 19.1498 38.8078 19.8702 37.8538 20.6572C37.4522 20.9886 37.0126 21.2638 36.5418 21.4821C36.1573 20.7319 35.3765 20.217 34.4773 20.217H32.6236C31.345 20.217 30.3049 21.2572 30.3049 22.5357C30.3049 23.8142 31.345 24.8545 32.6236 24.8545H34.4773C35.5533 24.8545 36.4603 24.1177 36.7207 23.1222C37.7789 22.719 39.5043 21.2807 39.5047 21.2801C38.969 24.1559 36.4424 26.3405 33.4137 26.3405H30.8359C27.4187 26.3405 24.6386 23.5605 24.6386 20.1432V14.0287C27.3252 13.6076 29.8633 12.6985 32.191 11.3217C35.7351 9.22526 38.0085 6.48582 39.3805 4.32149C41.7279 6.4122 43.0632 9.40952 43.0218 12.5618ZM35.2138 22.538C35.2126 22.9433 34.8827 23.2726 34.4772 23.2726H32.6235C32.2172 23.2726 31.8868 22.9421 31.8868 22.5359C31.8868 22.1298 32.2173 21.7992 32.6235 21.7992H34.4772C34.8826 21.7992 35.2124 22.1284 35.2138 22.5335V22.538ZM21.33 12.4274C21.33 6.44722 26.1952 1.58205 32.1754 1.58205C34.3201 1.58205 36.3695 2.20115 38.1208 3.35371C36.8583 5.37755 34.7332 7.9801 31.3855 9.96038C29.0889 11.3188 26.5698 12.1861 23.8978 12.5381H23.8485C23.8482 12.5381 23.8479 12.5381 23.8474 12.5381C23.847 12.5381 23.8468 12.5381 23.8464 12.5381H21.3299V12.4274H21.33ZM18.2572 27.655C17.4551 25.9466 17.7055 23.9833 18.9097 22.5325C20.4208 20.712 21.3317 18.4625 21.33 16.0945V14.1202H23.0565V20.1435C23.0565 23.106 24.7216 25.6864 27.1644 26.9998C27.0116 28.2611 26.2049 29.3629 25.0192 29.8785L23.7633 30.4246H22.6167C20.7299 30.4246 19.0595 29.3634 18.2572 27.655ZM45.7937 39.9506L44.4721 52.418H20.5738L19.2522 39.9506C19.2282 39.7246 19.2987 39.5071 19.4507 39.3383C19.6026 39.1693 19.8116 39.0763 20.0387 39.0763H45.0071C45.2343 39.0763 45.4432 39.1693 45.5952 39.3383C45.7472 39.5071 45.8176 39.7246 45.7937 39.9506ZM50.8359 52.418H46.063L47.3669 40.1175C47.4377 39.4493 47.2206 38.7797 46.7714 38.2802C46.322 37.7807 45.679 37.4943 45.0071 37.4943H41.8257V32.6709L47.1309 34.9447C49.3816 35.9424 50.8359 38.1772 50.8359 40.6382V52.418ZM32.5229 42.7412C30.8654 42.7412 29.517 44.0896 29.517 45.7471C29.517 47.4045 30.8654 48.7529 32.5229 48.7529C34.1803 48.7529 35.5287 47.4045 35.5287 45.7471C35.5287 44.0896 34.1803 42.7412 32.5229 42.7412ZM32.5229 47.1709C31.7378 47.1709 31.099 46.5322 31.099 45.7471C31.099 44.962 31.7378 44.3233 32.5229 44.3233C33.308 44.3233 33.9467 44.962 33.9467 45.7471C33.9467 46.5322 33.3081 47.1709 32.5229 47.1709Z" fill="#FF7810"/>
</g>
<defs>
<clipPath id="clip0_2080_423">
<rect width="54" height="54" fill="white"/>
</clipPath>
</defs>
</svg>
