<svg width="56" height="56" viewBox="0 0 56 56" fill="none" xmlns="http://www.w3.org/2000/svg">
<path d="M16.4605 12.5576H13.4059C12.5575 12.5576 11.8787 11.8788 11.8787 11.0303V9.75762C11.8787 8.90913 12.5575 8.23035 13.4059 8.23035H16.4605C17.309 8.23035 17.9878 8.90913 17.9878 9.75762C17.9878 10.2667 17.6484 10.6061 17.1393 10.6061C16.715 10.6061 16.3756 10.3516 16.2908 9.92732H13.5756V10.8607H16.4605C16.9696 10.8607 17.309 11.2 17.309 11.7091C17.309 12.2182 16.9696 12.5576 16.4605 12.5576Z" fill="#FF7810"/>
<path d="M16.4605 15.2728H13.4059C12.5575 15.2728 11.8787 14.594 11.8787 13.7455C11.8787 13.2364 12.2181 12.897 12.7271 12.897C13.1514 12.897 13.4908 13.1516 13.5756 13.5758H16.2908V12.5576C15.8665 12.4728 15.612 12.1334 15.612 11.7091C15.612 11.2001 15.9514 10.8607 16.4605 10.8607C17.309 10.8607 17.9878 11.5394 17.9878 12.3879V13.7455C17.9878 14.594 17.309 15.2728 16.4605 15.2728Z" fill="#FF7810"/>
<path d="M15.1029 9.92733C14.5938 9.92733 14.2544 9.58793 14.2544 9.07884V7.89097C14.2544 7.38187 14.5938 7.04248 15.1029 7.04248C15.612 7.04248 15.9514 7.38187 15.9514 7.89097V9.07884C15.9514 9.58793 15.612 9.92733 15.1029 9.92733Z" fill="#FF7810"/>
<path d="M15.1029 16.4607C14.5938 16.4607 14.2544 16.1213 14.2544 15.6122V14.4243C14.2544 13.9152 14.5938 13.5758 15.1029 13.5758C15.612 13.5758 15.9514 13.9152 15.9514 14.4243V15.6122C15.9514 16.1213 15.612 16.4607 15.1029 16.4607Z" fill="#FF7810"/>
<path d="M43.6121 24.7758C43.103 24.7758 42.7636 24.4364 42.7636 23.9273V5.43033C42.7636 3.90306 41.406 2.54548 39.8788 2.54548H9.16361C7.63633 2.54548 6.27876 3.90306 6.27876 5.43033V11.1152C6.27876 11.6243 5.93936 11.9637 5.43027 11.9637C4.92118 11.9637 4.58179 11.6243 4.58179 11.1152V5.43033C4.58179 2.96972 6.703 0.848511 9.16361 0.848511H39.8788C42.4242 0.848511 44.4606 2.88487 44.4606 5.43033V23.9273C44.4606 24.4364 44.1212 24.7758 43.6121 24.7758Z" fill="#FF7810"/>
<path d="M5.43027 42.594C4.92118 42.594 4.58179 42.2546 4.58179 41.7455V29.4425C4.58179 28.9334 4.92118 28.594 5.43027 28.594C5.93936 28.594 6.27876 28.9334 6.27876 29.4425V41.7455C6.27876 42.2546 5.93936 42.594 5.43027 42.594Z" fill="#FF7810"/>
<path d="M39.8788 55.1515H9.16361C6.61815 55.1515 4.58179 53.1152 4.58179 50.5697V44.8C4.58179 44.2909 4.92118 43.9515 5.43027 43.9515C5.93936 43.9515 6.27876 44.2909 6.27876 44.8V50.5697C6.27876 52.097 7.63633 53.4546 9.16361 53.4546H39.8788C41.406 53.4546 42.7636 52.097 42.7636 50.5697V50.4C42.7636 49.8909 43.103 49.5515 43.6121 49.5515C44.1212 49.5515 44.4606 49.8909 44.4606 50.4V50.5697C44.4606 53.1152 42.4242 55.1515 39.8788 55.1515Z" fill="#FF7810"/>
<path d="M5.43027 27.3212C4.92118 27.3212 4.58179 26.9818 4.58179 26.4727V14.1697C4.58179 13.6606 4.92118 13.3212 5.43027 13.3212C5.93936 13.3212 6.27876 13.6606 6.27876 14.1697V26.4727C6.27876 26.9818 5.93936 27.3212 5.43027 27.3212Z" fill="#FF7810"/>
<path d="M13.3211 33.6C13.0666 33.6 12.812 33.5152 12.6423 33.2606C12.3029 32.9212 12.3878 32.3273 12.7272 32.0727L16.5454 28.9333C16.8848 28.5939 17.4787 28.6788 17.7332 29.0182C18.0726 29.3576 17.9878 29.9515 17.6484 30.2061L13.8302 33.3455C13.6605 33.5152 13.4908 33.6 13.3211 33.6Z" fill="#FF7810"/>
<path d="M36.4 12.6425H22.5697C22.0606 12.6425 21.7212 12.3031 21.7212 11.794C21.7212 11.2849 22.0606 10.9455 22.5697 10.9455H36.4C36.9091 10.9455 37.2485 11.2849 37.2485 11.794C37.2485 12.3031 36.9091 12.6425 36.4 12.6425Z" fill="#FF7810"/>
<path d="M36.4 19.1758H22.5697C22.0606 19.1758 21.7212 18.8364 21.7212 18.3273C21.7212 17.8182 22.0606 17.4788 22.5697 17.4788H36.4C36.9091 17.4788 37.2485 17.8182 37.2485 18.3273C37.2485 18.8364 36.9091 19.1758 36.4 19.1758Z" fill="#FF7810"/>
<path d="M29.3576 25.7091H22.5697C22.0606 25.7091 21.7212 25.3697 21.7212 24.8606C21.7212 24.3515 22.0606 24.0121 22.5697 24.0121H29.3576C29.8666 24.0121 30.206 24.3515 30.206 24.8606C30.206 25.3697 29.8666 25.7091 29.3576 25.7091Z" fill="#FF7810"/>
<path d="M29.1879 32.2424H22.5697C22.0606 32.2424 21.7212 31.903 21.7212 31.394C21.7212 30.8849 22.0606 30.5455 22.5697 30.5455H29.1879C29.697 30.5455 30.0363 30.8849 30.0363 31.394C30.0363 31.903 29.697 32.2424 29.1879 32.2424Z" fill="#FF7810"/>
<path d="M29.1879 38.6909H22.5697C22.0606 38.6909 21.7212 38.3515 21.7212 37.8424C21.7212 37.3334 22.0606 36.994 22.5697 36.994H29.1879C29.697 36.994 30.0363 37.3334 30.0363 37.8424C30.0363 38.3515 29.697 38.6909 29.1879 38.6909Z" fill="#FF7810"/>
<path d="M29.4424 45.2243H22.5697C22.0606 45.2243 21.7212 44.8849 21.7212 44.3758C21.7212 43.8667 22.0606 43.5273 22.5697 43.5273H29.4424C29.9515 43.5273 30.2909 43.8667 30.2909 44.3758C30.2909 44.8849 29.9515 45.2243 29.4424 45.2243Z" fill="#FF7810"/>
<path d="M14.8483 20.703C14.6786 20.703 14.4241 20.6182 14.2544 20.5333L12.3029 18.8364C11.9635 18.497 11.8786 17.9879 12.218 17.6485C12.5574 17.3091 13.0665 17.2242 13.4059 17.5636L14.7635 18.7515L17.7332 16.1212C18.0726 15.7818 18.5816 15.8667 18.921 16.2061C19.2604 16.5455 19.1756 17.0545 18.8362 17.3939L15.2726 20.5333C15.2726 20.6182 15.018 20.703 14.8483 20.703Z" fill="#FF7810"/>
<path d="M14.7636 26.897C14.5939 26.897 14.3394 26.8122 14.1697 26.7273L12.2181 25.0303C11.8787 24.6909 11.7939 24.1818 12.1333 23.8425C12.4727 23.5031 12.9818 23.4182 13.3212 23.7576L14.6787 24.9455L17.6484 22.3152C17.9878 21.9758 18.4969 22.0606 18.8363 22.4C19.1757 22.7394 19.0909 23.2485 18.7515 23.5879L15.1878 26.7273C15.1878 26.8122 14.9333 26.897 14.7636 26.897Z" fill="#FF7810"/>
<path d="M14.6786 40.5576C14.5089 40.5576 14.2544 40.4727 14.0847 40.3879L12.1332 38.6909C11.7938 38.3515 11.7089 37.8424 12.0483 37.503C12.3877 37.1636 12.8968 37.0788 13.2362 37.4182L14.5938 38.6061L17.5635 35.9758C17.9029 35.6364 18.412 35.7212 18.7514 36.0606C19.0908 36.4 19.0059 36.9091 18.6665 37.2485L15.2726 40.303C15.1029 40.4727 14.8483 40.5576 14.6786 40.5576Z" fill="#FF7810"/>
<path d="M14.5938 46.6667C14.4241 46.6667 14.1695 46.5819 14.0847 46.497L12.1332 44.8849C11.7938 44.5455 11.7089 44.0364 12.0483 43.697C12.3877 43.3576 12.8968 43.2728 13.2362 43.6122L14.6786 44.8L17.7332 42.1697C18.0726 41.8303 18.6665 41.9152 18.9211 42.2546C19.2605 42.594 19.1756 43.1031 18.8362 43.4425L15.2726 46.497C15.018 46.5819 14.7635 46.6667 14.5938 46.6667Z" fill="#FF7810"/>
<path d="M17.1392 33.6C16.9695 33.6 16.7998 33.5152 16.6301 33.4303L12.8119 30.2909C12.4725 29.9515 12.3877 29.4424 12.727 29.103C13.0664 28.7636 13.5755 28.6788 13.9149 29.0182L17.7331 32.1576C18.0725 32.497 18.1573 33.0061 17.818 33.3455C17.6483 33.5152 17.3937 33.6 17.1392 33.6Z" fill="#FF7810"/>
<path d="M51.6726 51.1636H35.2969C33.4302 51.1636 31.9878 49.7212 31.9878 47.8546V26.3879C31.9878 25.6243 32.2423 24.8606 32.7514 24.2667C33.3454 23.503 34.2787 23.0788 35.2969 23.0788H51.6726C53.5393 23.0788 54.9817 24.6061 54.9817 26.4727V47.8546C54.9817 49.7212 53.5393 51.1636 51.6726 51.1636ZM35.2969 24.7758C34.7878 24.7758 34.3636 24.9455 34.109 25.2849C33.8545 25.6242 33.6848 25.9636 33.6848 26.3879V47.8546C33.6848 48.703 34.4484 49.4667 35.2969 49.4667H51.6726C52.5211 49.4667 53.2848 48.703 53.2848 47.8546V26.4727C53.2848 25.5394 52.606 24.7758 51.6726 24.7758H35.2969ZM45.5636 47.2606H36.7393C36.2302 47.2606 35.8908 46.9212 35.8908 46.4121V41.0667C35.8908 40.5576 36.2302 40.2182 36.7393 40.2182H45.5636C46.0726 40.2182 46.412 40.5576 46.412 41.0667V46.4121C46.412 46.9212 46.0726 47.2606 45.5636 47.2606ZM37.5878 45.5636H44.7151V41.9152H37.5878V45.5636Z" fill="#FF7810"/>
<path d="M50.2302 32.4122H36.6544C36.1453 32.4122 35.8059 32.0728 35.8059 31.5637V27.9152C35.8059 27.4061 36.1453 27.0667 36.6544 27.0667H50.2302C50.7392 27.0667 51.0786 27.4061 51.0786 27.9152V31.5637C51.0786 32.0728 50.7392 32.4122 50.2302 32.4122ZM37.5029 30.7152H49.3817V28.7637H37.5029V30.7152Z" fill="#FF7810"/>
<path d="M50.2303 47.2606H45.5636C45.0545 47.2606 44.7151 46.9212 44.7151 46.4122V41.9152H36.7394C36.2303 41.9152 35.8909 41.5758 35.8909 41.0667V35.5515C35.8909 35.0425 36.2303 34.7031 36.7394 34.7031H50.2303C50.7394 34.7031 51.0788 35.0425 51.0788 35.5515V46.4122C51.0788 46.9212 50.7394 47.2606 50.2303 47.2606ZM46.4121 45.5637H49.3818V36.4H37.5878V40.2182H45.5636C46.0727 40.2182 46.4121 40.5576 46.4121 41.0667V45.5637Z" fill="#FF7810"/>
<path d="M41.4061 47.1758C40.897 47.1758 40.5576 46.8364 40.5576 46.3273V35.4667C40.5576 34.9576 40.897 34.6182 41.4061 34.6182C41.9152 34.6182 42.2546 34.9576 42.2546 35.4667V46.3273C42.2546 46.8364 41.9152 47.1758 41.4061 47.1758Z" fill="#FF7810"/>
<path d="M45.5636 47.2606C45.0545 47.2606 44.7151 46.9212 44.7151 46.4122V35.5515C44.7151 35.0425 45.0545 34.7031 45.5636 34.7031C46.0727 34.7031 46.4121 35.0425 46.4121 35.5515V46.4122C46.4121 46.9212 46.0727 47.2606 45.5636 47.2606Z" fill="#FF7810"/>
<path d="M50.1454 41.9152H36.7394C36.2303 41.9152 35.8909 41.5758 35.8909 41.0667C35.8909 40.5576 36.2303 40.2182 36.7394 40.2182H50.1454C50.6545 40.2182 50.9939 40.5576 50.9939 41.0667C50.9939 41.5758 50.6545 41.9152 50.1454 41.9152Z" fill="#FF7810"/>
<path d="M8.73928 15.0182H1.86655C1.35746 15.0182 1.01807 14.6788 1.01807 14.1697V11.1151C1.01807 10.6061 1.35746 10.2667 1.86655 10.2667H8.73928C9.24837 10.2667 9.58776 10.6061 9.58776 11.1151V14.1697C9.58776 14.6788 9.24837 15.0182 8.73928 15.0182ZM2.71504 13.3212H7.89079V11.9636H2.71504V13.3212Z" fill="#FF7810"/>
<path d="M8.73928 30.3758H1.86655C1.35746 30.3758 1.01807 30.0364 1.01807 29.5273V26.4728C1.01807 25.9637 1.35746 25.6243 1.86655 25.6243H8.73928C9.24837 25.6243 9.58776 25.9637 9.58776 26.4728V29.5273C9.58776 30.0364 9.24837 30.3758 8.73928 30.3758ZM2.71504 28.6788H7.89079V27.3212H2.71504V28.6788Z" fill="#FF7810"/>
<path d="M8.73936 45.6485H5.43027C4.92118 45.6485 4.58179 45.3091 4.58179 44.8C4.58179 44.2909 4.92118 43.9515 5.43027 43.9515H7.89088V42.5939H5.43027C4.92118 42.5939 4.58179 42.2545 4.58179 41.7455C4.58179 41.2364 4.92118 40.897 5.43027 40.897H8.73936C9.24845 40.897 9.58785 41.2364 9.58785 41.7455V44.8C9.58785 45.3091 9.24845 45.6485 8.73936 45.6485Z" fill="#FF7810"/>
<path d="M5.43019 45.6485H1.86655C1.35746 45.6485 1.01807 45.3091 1.01807 44.8V41.7455C1.01807 41.2364 1.35746 40.897 1.86655 40.897H5.43019C5.93928 40.897 6.27867 41.2364 6.27867 41.7455C6.27867 42.2545 5.93928 42.5939 5.43019 42.5939H2.71504V43.9515H5.43019C5.93928 43.9515 6.27867 44.2909 6.27867 44.8C6.27867 45.3091 5.93928 45.6485 5.43019 45.6485Z" fill="#FF7810"/>
</svg>
