<svg width="54" height="54" viewBox="0 0 54 54" fill="none" xmlns="http://www.w3.org/2000/svg">
<path d="M51.7152 18.9186L36.2883 16.6835L29.3906 2.74777C29.1696 2.30266 28.8288 1.92809 28.4064 1.66623C27.9841 1.40437 27.497 1.26562 27.0001 1.26562C26.5031 1.26562 26.0161 1.40437 25.5937 1.66623C25.1713 1.92809 24.8305 2.30266 24.6095 2.74777L17.7118 16.6835L2.28494 18.9186C1.79308 18.9888 1.33075 19.1955 0.950398 19.5151C0.570042 19.8348 0.286888 20.2547 0.133059 20.7271C-0.0207708 21.1995 -0.0391176 21.7056 0.0800994 22.1879C0.199316 22.6703 0.451325 23.1095 0.807536 23.4559L11.9699 34.3048L9.33506 49.6217C9.27052 50.0038 9.28999 50.3954 9.39211 50.7692C9.49423 51.1431 9.67654 51.4902 9.92638 51.7864C10.1762 52.0826 10.4876 52.3209 10.8388 52.4846C11.1901 52.6483 11.5727 52.7335 11.9603 52.7344C12.3934 52.7338 12.8198 52.628 13.203 52.4262L20.2501 48.732V46.8265L12.4194 50.9315C12.2577 51.0189 12.0743 51.0582 11.8909 51.0448C11.7076 51.0314 11.5318 50.9659 11.3845 50.8559C11.2365 50.751 11.1215 50.6061 11.0531 50.4381C10.9846 50.2701 10.9656 50.0861 10.9983 49.9077L13.7085 34.1525C13.7318 34.0175 13.7218 33.8788 13.6793 33.7484C13.6369 33.6181 13.5634 33.5001 13.4651 33.4046L1.98379 22.2459C1.85353 22.1192 1.76146 21.9585 1.71803 21.7821C1.67461 21.6056 1.68159 21.4206 1.73817 21.2479C1.79475 21.0752 1.89866 20.9219 2.03808 20.8054C2.1775 20.6889 2.34682 20.6139 2.52679 20.5888L18.3924 18.2901C18.5277 18.2705 18.6562 18.2183 18.7669 18.138C18.8775 18.0577 18.967 17.9518 19.0277 17.8293L26.1219 3.49635C26.2034 3.33315 26.3287 3.19588 26.4838 3.09992C26.6389 3.00397 26.8177 2.95315 27.0001 2.95315C27.1825 2.95315 27.3612 3.00397 27.5164 3.09992C27.6715 3.19588 27.7968 3.33315 27.8782 3.49635L34.9724 17.8293C35.0331 17.9518 35.1226 18.0577 35.2333 18.138C35.3439 18.2183 35.4724 18.2705 35.6077 18.2901L51.4734 20.5888C51.6533 20.6138 51.8226 20.6889 51.9621 20.8054C52.1015 20.9219 52.2054 21.0752 52.262 21.2479C52.3186 21.4205 52.3255 21.6056 52.2821 21.7821C52.2387 21.9585 52.1466 22.1192 52.0163 22.2459L40.5351 33.4046C40.4368 33.5001 40.3632 33.6181 40.3208 33.7484C40.2784 33.8788 40.2684 34.0175 40.2916 34.1525L43.0019 49.9077C43.0345 50.0861 43.0155 50.2701 42.9471 50.4381C42.8787 50.6061 42.7637 50.751 42.6156 50.8559C42.4683 50.966 42.2926 51.0316 42.1092 51.045C41.9258 51.0584 41.7424 51.019 41.5807 50.9315L33.7501 46.8265V48.732L40.7971 52.4262C41.2369 52.6575 41.7326 52.7612 42.2282 52.7257C42.7239 52.6902 43.1997 52.5168 43.602 52.2251C44.0042 51.9334 44.317 51.5351 44.5048 51.075C44.6927 50.615 44.7482 50.1116 44.6651 49.6217L42.0302 34.3048L53.1926 23.4559C53.5488 23.1095 53.8008 22.6703 53.92 22.1879C54.0393 21.7056 54.0209 21.1995 53.8671 20.7271C53.7132 20.2547 53.4301 19.8348 53.0497 19.5151C52.6694 19.1955 52.2071 18.9888 51.7152 18.9186Z" fill="#FF7810"/>
<path d="M23.2194 42.014C22.7557 41.8608 22.322 41.6286 21.9375 41.3276V50.626C21.9375 50.7839 21.9818 50.9388 22.0655 51.0728C22.1491 51.2068 22.2687 51.3147 22.4107 51.384C22.5526 51.4534 22.7112 51.4816 22.8683 51.4652C23.0255 51.4489 23.1749 51.3888 23.2995 51.2918L27 48.4115L30.7005 51.2917C30.8251 51.3888 30.9745 51.4489 31.1317 51.4652C31.2888 51.4816 31.4474 51.4534 31.5893 51.384C31.7313 51.3147 31.8509 51.2068 31.9345 51.0728C32.0182 50.9388 32.0625 50.7839 32.0625 50.626V41.3273C31.6782 41.6284 31.2446 41.8606 30.781 42.0138C30.6476 42.0561 30.5121 42.0913 30.375 42.1193V48.8999L27.5183 46.6764C27.3701 46.561 27.1878 46.4984 27 46.4984C26.8123 46.4984 26.6299 46.561 26.4817 46.6764L23.625 48.8999V42.1193C23.488 42.0913 23.3527 42.0562 23.2194 42.014Z" fill="#FF7810"/>
<path d="M32.7037 38.2262C32.9974 38.0426 33.3119 37.8947 33.6406 37.7855C34.3764 37.5773 35.0344 37.1567 35.5322 36.5763C35.9287 35.9271 36.1253 35.1756 36.0975 34.4154C36.1005 34.0646 36.1452 33.7153 36.2306 33.3749C36.3567 33.0662 36.5191 32.7736 36.7142 32.5031C37.1974 31.8927 37.4874 31.1519 37.5469 30.3756C37.4874 29.5993 37.1974 28.8585 36.7142 28.2481C36.5191 27.9776 36.3568 27.685 36.2306 27.3763C36.1452 27.0359 36.1006 26.6866 36.0975 26.3358C36.1254 25.5757 35.9289 24.8243 35.5327 24.1751C35.0347 23.5947 34.3767 23.174 33.6408 22.9657C33.3121 22.8565 32.9976 22.7086 32.704 22.525C32.4436 22.3052 32.2102 22.0552 32.0087 21.7804C31.5813 21.1381 30.9725 20.6376 30.2599 20.3423C29.5276 20.1698 28.7609 20.2157 28.0545 20.4741C27.7122 20.582 27.3581 20.6485 27 20.6723C26.6419 20.6485 26.2878 20.582 25.9455 20.4741C25.2391 20.2157 24.4724 20.1699 23.7402 20.3423C23.0275 20.6376 22.4187 21.1382 21.9913 21.7803C21.7899 22.0552 21.5566 22.3052 21.2962 22.525C21.0026 22.7086 20.6881 22.8565 20.3594 22.9657C19.6236 23.1739 18.9656 23.5945 18.4678 24.1749C18.0713 24.824 17.8747 25.5756 17.9025 26.3358C17.8995 26.6866 17.8548 27.0359 17.7694 27.3763C17.6433 27.685 17.4809 27.9776 17.2858 28.2481C16.8026 28.8585 16.5126 29.5993 16.4531 30.3756C16.5126 31.1519 16.8026 31.8927 17.2857 32.5031C17.4809 32.7736 17.6432 33.0662 17.7694 33.3749C17.8548 33.7153 17.8994 34.0646 17.9025 34.4154C17.8746 35.1755 18.0711 35.9269 18.4673 36.5761C18.9653 37.1565 19.6233 37.5772 20.3592 37.7855C20.6879 37.8947 21.0024 38.0426 21.296 38.2262C21.5564 38.446 21.7898 38.696 21.9913 38.9708C22.4187 39.6131 23.0275 40.1136 23.7402 40.4089C23.9877 40.4878 24.2461 40.5269 24.5058 40.5249C24.9944 40.5047 25.4783 40.4214 25.9455 40.2771C26.2878 40.1692 26.6419 40.1027 27 40.0789C27.3581 40.1027 27.7122 40.1692 28.0545 40.2771C28.7608 40.536 29.5277 40.5818 30.2598 40.4089C30.9725 40.1136 31.5813 39.613 32.0087 38.9709C32.2101 38.696 32.4434 38.446 32.7037 38.2262ZM31.7107 36.8618C31.3279 37.165 30.9868 37.5175 30.6963 37.91C30.4565 38.2829 30.1273 38.5902 29.7387 38.8038C29.3144 38.8524 28.8846 38.7981 28.4856 38.6456C28.0034 38.4973 27.5041 38.4118 27 38.3914C26.4959 38.4118 25.9966 38.4973 25.5144 38.6456C25.1154 38.7979 24.6856 38.8522 24.2613 38.8038C23.8726 38.5902 23.5433 38.283 23.3034 37.91C23.0129 37.5174 22.6718 37.1649 22.2889 36.8616C21.8786 36.5875 21.434 36.3688 20.9664 36.2111C20.5425 36.098 20.1528 35.8824 19.8318 35.5832C19.6489 35.1888 19.5651 34.7557 19.5875 34.3215C19.5807 33.825 19.5091 33.3316 19.3745 32.8537C19.2069 32.4018 18.98 31.9742 18.6997 31.5821C18.4144 31.2336 18.2221 30.8185 18.1406 30.3756C18.2221 29.9326 18.4144 29.5175 18.6997 29.1691C18.98 28.777 19.2069 28.3493 19.3745 27.8974C19.5091 27.4195 19.5807 26.9261 19.5875 26.4297C19.565 25.9955 19.649 25.5623 19.832 25.168C20.153 24.8688 20.5427 24.6532 20.9666 24.5401C21.4343 24.3824 21.879 24.1635 22.2893 23.8893C22.6721 23.5861 23.0132 23.2337 23.3037 22.8412C23.5435 22.4682 23.8727 22.161 24.2613 21.9474C24.6856 21.8988 25.1154 21.9531 25.5144 22.1056C25.9966 22.2539 26.4959 22.3394 27 22.3598C27.5041 22.3394 28.0034 22.2539 28.4856 22.1056C28.8846 21.9531 29.3144 21.8988 29.7387 21.9474C30.1274 22.161 30.4567 22.4682 30.6966 22.8412C30.9871 23.2338 31.3282 23.5863 31.7111 23.8895C32.1214 24.1636 32.566 24.3824 33.0336 24.5401C33.4575 24.6532 33.8472 24.8688 34.1682 25.168C34.351 25.5624 34.4349 25.9955 34.4125 26.4297C34.4193 26.9261 34.4909 27.4195 34.6255 27.8974C34.7931 28.3493 35.02 28.7769 35.3003 29.169C35.5856 29.5175 35.7779 29.9326 35.8594 30.3756C35.7779 30.8185 35.5856 31.2336 35.3003 31.5821C35.02 31.9742 34.7931 32.4018 34.6255 32.8537C34.4909 33.3316 34.4193 33.825 34.4125 34.3215C34.435 34.7557 34.351 35.1888 34.168 35.5832C33.847 35.8824 33.4573 36.098 33.0333 36.2111C32.5657 36.3688 32.121 36.5876 31.7107 36.8618Z" fill="#FF7810"/>
<path d="M26.9999 25.7349C26.0821 25.7348 25.1848 26.007 24.4217 26.5169C23.6585 27.0268 23.0637 27.7516 22.7124 28.5996C22.3612 29.4476 22.2692 30.3807 22.4483 31.2809C22.6273 32.1811 23.0693 33.008 23.7183 33.657C24.3674 34.3061 25.1942 34.748 26.0945 34.9271C26.9947 35.1062 27.9278 35.0143 28.7758 34.663C29.6237 34.3118 30.3485 33.717 30.8585 32.9538C31.3684 32.1907 31.6406 31.2934 31.6406 30.3756C31.6392 29.1452 31.1498 27.9656 30.2798 27.0956C29.4099 26.2256 28.2303 25.7363 26.9999 25.7349ZM26.9999 33.3288C26.4158 33.3288 25.8449 33.1556 25.3592 32.8311C24.8736 32.5066 24.495 32.0454 24.2715 31.5058C24.048 30.9661 23.9895 30.3724 24.1034 29.7995C24.2174 29.2266 24.4986 28.7004 24.9116 28.2874C25.3246 27.8744 25.8508 27.5931 26.4237 27.4791C26.9966 27.3652 27.5904 27.4237 28.13 27.6472C28.6696 27.8707 29.1308 28.2492 29.4553 28.7349C29.7799 29.2205 29.9531 29.7915 29.9531 30.3756C29.9522 31.1585 29.6408 31.9092 29.0872 32.4628C28.5335 33.0165 27.7829 33.3279 26.9999 33.3288Z" fill="#FF7810"/>
</svg>
