<svg width="80" height="80" viewBox="0 0 80 80" fill="none" xmlns="http://www.w3.org/2000/svg">
<path d="M28.585 15.7539C28.1578 15.3269 28.1578 14.6344 28.585 14.2073C34.8789 7.91313 45.1208 7.91313 51.415 14.2073C51.8422 14.6344 51.8422 15.3269 51.4152 15.7539C51.2016 15.9675 50.9216 16.0744 50.6417 16.0744C50.3619 16.0744 50.0819 15.9675 49.8684 15.7539C44.4269 10.3127 35.5733 10.3127 30.1317 15.7539C29.7047 16.1812 29.0119 16.1812 28.585 15.7539ZM47.2963 19.4198C47.5761 19.4198 47.8561 19.313 48.0697 19.0994C48.4967 18.6723 48.4967 17.9798 48.0695 17.5527C43.62 13.1031 36.3798 13.1031 31.9303 17.5527C31.5031 17.9798 31.5031 18.6723 31.9302 19.0994C32.3573 19.5266 33.05 19.5266 33.4769 19.0995C37.0738 15.5027 42.9261 15.5027 46.5228 19.0995C46.7364 19.3131 47.0164 19.4198 47.2963 19.4198ZM43.9508 22.7653C44.2306 22.7653 44.5106 22.6584 44.7241 22.4448C45.1513 22.0178 45.1513 21.3253 44.7241 20.8983C42.1194 18.2933 37.8805 18.2933 35.2758 20.8983C34.8486 21.3253 34.8486 22.0178 35.2758 22.4448C35.7027 22.872 36.3955 22.872 36.8223 22.4448C38.5747 20.6928 41.425 20.6928 43.1773 22.4448C43.3909 22.6586 43.6709 22.7653 43.9508 22.7653ZM38.7316 25.8547C38.7316 26.5552 39.2995 27.1231 40 27.1231C40.7005 27.1231 41.2684 26.5552 41.2684 25.8547C41.2684 25.1542 40.7005 24.5863 40 24.5863C39.2995 24.5863 38.7316 25.1542 38.7316 25.8547ZM75.6213 30.8584V77.5C75.6213 78.1041 75.1316 78.5938 74.5275 78.5938H66.5659C65.9619 78.5938 65.4722 78.1041 65.4722 77.5V74.8117H14.528V77.5C14.528 78.1041 14.0383 78.5938 13.4342 78.5938H5.4725C4.86844 78.5938 4.37875 78.1041 4.37875 77.5V30.8584C2.56641 29.3817 1.40625 27.1336 1.40625 24.6189C1.40625 20.553 4.43828 17.1837 8.35953 16.6481V5.35172C8.35953 4.74766 8.84922 4.25797 9.45328 4.25797H16.4717C16.9473 2.61297 18.4658 1.40625 20.2619 1.40625C22.4375 1.40625 24.2073 3.17609 24.2073 5.35172C24.2073 7.52734 22.4375 9.29719 20.2619 9.29719C18.4658 9.29719 16.9473 8.09047 16.4719 6.44547H10.547V16.6481C14.4683 17.1837 17.5003 20.5528 17.5003 24.6189C17.5003 27.1336 16.3402 29.3817 14.528 30.8586V34.1022H25.6233V28.1772C23.9784 27.7017 22.7717 26.1833 22.7717 24.3873C22.7717 22.2117 24.5416 20.4419 26.7172 20.4419C28.8927 20.4419 30.6625 22.2117 30.6625 24.3873C30.6625 26.1833 29.4558 27.7019 27.8108 28.1773V34.1022H52.1894V28.1773C50.5444 27.7019 49.3377 26.1834 49.3377 24.3875C49.3377 22.2119 51.1075 20.442 53.2831 20.442C55.4588 20.442 57.2286 22.2119 57.2286 24.3875C57.2286 26.1834 56.0219 27.7019 54.3769 28.1773V34.1022H65.4722V30.8587C63.6599 29.382 62.4997 27.1337 62.4997 24.6191C62.4997 20.5531 65.5317 17.1839 69.453 16.6483V6.44547H63.5281C63.0527 8.09047 61.5342 9.29719 59.7381 9.29719C57.5625 9.29719 55.7927 7.52734 55.7927 5.35172C55.7927 3.17609 57.5625 1.40625 59.7381 1.40625C61.5342 1.40625 63.0527 2.61297 63.5281 4.25797H70.5466C71.1506 4.25797 71.6403 4.74766 71.6403 5.35172V16.6481C75.5616 17.1837 78.5936 20.5528 78.5936 24.6189C78.5938 27.1336 77.4336 29.3817 75.6213 30.8584ZM61.4961 5.35172C61.4961 4.38234 60.7075 3.59375 59.7381 3.59375C58.7688 3.59375 57.9802 4.38234 57.9802 5.35172C57.9802 6.32109 58.7688 7.10969 59.7381 7.10969C60.7075 7.10969 61.4961 6.32109 61.4961 5.35172ZM53.2831 26.145C54.2525 26.145 55.0411 25.3564 55.0411 24.3872C55.0411 23.4178 54.2525 22.6292 53.2831 22.6292C52.3138 22.6292 51.5252 23.4178 51.5252 24.3872C51.5252 25.3564 52.3138 26.145 53.2831 26.145ZM26.7172 26.145C27.6864 26.145 28.475 25.3564 28.475 24.3872C28.475 23.4178 27.6864 22.6292 26.7172 22.6292C25.7478 22.6292 24.9592 23.4178 24.9592 24.3872C24.9592 25.3564 25.7478 26.145 26.7172 26.145ZM18.5039 5.35172C18.5039 6.32109 19.2925 7.10969 20.2619 7.10969C21.2313 7.10969 22.0198 6.32109 22.0198 5.35172C22.0198 4.38234 21.2313 3.59375 20.2619 3.59375C19.2925 3.59375 18.5039 4.38234 18.5039 5.35172ZM70.5467 30.4784C73.7777 30.4784 76.4063 27.8498 76.4063 24.6187C76.4063 21.3878 73.7777 18.7592 70.5467 18.7592C67.3158 18.7592 64.6872 21.3878 64.6872 24.6187C64.6872 27.8498 67.3158 30.4784 70.5467 30.4784ZM54.3769 36.2895V72.6242H58.8308V36.2895H54.3769ZM52.1894 36.2895H47.7355V72.6242H52.1894V36.2895ZM38.9063 36.2895H34.4522V72.6242H38.9063V36.2895ZM41.0939 72.6242H45.548V36.2895H41.0939V72.6242ZM27.8108 36.2895V72.6242H32.2648V36.2895H27.8108ZM25.6233 36.2895H21.1694V72.6242H25.6233V36.2895ZM9.45328 30.4784C12.6842 30.4784 15.3128 27.8498 15.3128 24.6187C15.3128 21.3878 12.6842 18.7592 9.45328 18.7592C6.22234 18.7592 3.59375 21.388 3.59375 24.6189C3.59375 27.8498 6.2225 30.4784 9.45328 30.4784ZM12.3405 76.4062V32.1283C11.4436 32.4742 10.4708 32.6659 9.45328 32.6659C8.43578 32.6659 7.46297 32.4742 6.56609 32.1283V76.4062H12.3405ZM14.528 72.6242H18.9819V36.2895H14.528V72.6242ZM65.4722 72.6242V36.2895H61.0183V72.6242H65.4722ZM73.4338 32.1283C72.5369 32.4742 71.5641 32.6659 70.5466 32.6659C69.5292 32.6659 68.5564 32.4742 67.6595 32.1283V76.4062H73.4336V32.1283H73.4338Z" fill="#FF7810"/>
</svg>
