<svg width="84" height="84" viewBox="0 0 84 84" fill="none" xmlns="http://www.w3.org/2000/svg">
<g clip-path="url(#clip0_2080_260)">
<path d="M56.4394 64.942H51.2644V67.567H56.4375C57.1335 67.5663 57.8008 67.2895 58.2929 66.7974C58.785 66.3053 59.0618 65.638 59.0625 64.942V45.9375H56.4386L56.4394 64.942Z" fill="#FF7810"/>
<path d="M27.2349 17.7185L35.4826 20.3435H56.4375L56.4383 38.0624H59.0625V20.3435C59.0619 19.6475 58.7851 18.9803 58.2929 18.4881C57.8008 17.996 57.1335 17.7192 56.4375 17.7185L27.2349 17.7185Z" fill="#FF7810"/>
<path d="M17.977 67.5055L46.9289 76.7199C47.0577 76.7606 47.1919 76.7813 47.3269 76.7815C47.675 76.7814 48.0088 76.6432 48.255 76.397C48.5011 76.1509 48.6394 75.8171 48.6394 75.469V28.2455C48.6394 27.967 48.5508 27.6956 48.3864 27.4707C48.222 27.2458 47.9903 27.0791 47.7249 26.9945L18.773 17.78C18.5762 17.7175 18.3675 17.7023 18.1638 17.7355C17.96 17.7688 17.767 17.8497 17.6003 17.9716C17.4337 18.0934 17.2982 18.2529 17.2047 18.437C17.1113 18.621 17.0625 18.8246 17.0625 19.031V66.2545C17.0625 66.533 17.1511 66.8044 17.3155 67.0293C17.4799 67.2542 17.7116 67.4209 17.977 67.5055ZM19.6875 20.8261L46.0144 29.2049V73.6739L19.6875 65.2951V20.8261Z" fill="#FF7810"/>
<path d="M77.2963 42.5822C77.4137 42.3486 77.4583 42.0851 77.4244 41.8258C77.3905 41.5666 77.2796 41.3234 77.1062 41.1278L71.8562 35.2215C71.7417 35.0922 71.6029 34.9868 71.4477 34.9112C71.2925 34.8357 71.1239 34.7915 70.9516 34.7812C70.7793 34.7708 70.6066 34.7946 70.4435 34.8511C70.2803 34.9076 70.1299 34.9958 70.0009 35.1105C69.8719 35.2252 69.7668 35.3642 69.6915 35.5196C69.6163 35.6749 69.5725 35.8436 69.5625 36.016C69.5526 36.1883 69.5767 36.3609 69.6336 36.524C69.6904 36.687 69.7789 36.8372 69.8938 36.9659L73.2022 40.6875H53.8125C53.4644 40.6875 53.1306 40.8258 52.8844 41.0719C52.6383 41.3181 52.5 41.6519 52.5 42C52.5 42.3481 52.6383 42.6819 52.8844 42.9281C53.1306 43.1742 53.4644 43.3125 53.8125 43.3125H73.2022L69.8938 47.0341C69.6627 47.2944 69.5443 47.6358 69.5647 47.9833C69.5852 48.3308 69.7427 48.656 70.0028 48.8875C70.2672 49.1094 70.6065 49.2217 70.9511 49.2015C71.2957 49.1812 71.6196 49.0299 71.8562 48.7785L77.1062 42.8722C77.183 42.7851 77.247 42.6874 77.2963 42.5822Z" fill="#FF7810"/>
<path d="M26.3361 5.74645C26.5093 5.74853 26.6811 5.71513 26.841 5.64831C27.6312 5.31826 28.44 5.01192 29.2436 4.73699C29.5712 4.62306 29.8404 4.38409 29.9923 4.07231C30.1443 3.76052 30.1666 3.40126 30.0545 3.07304C29.9424 2.74482 29.7049 2.47433 29.394 2.32066C29.083 2.16699 28.7239 2.14265 28.3951 2.25296C27.5363 2.54648 26.6731 2.87397 25.8297 3.2258C25.6706 3.29218 25.5262 3.38925 25.4046 3.51147C25.283 3.63368 25.1867 3.77864 25.1212 3.93808C25.0557 4.09751 25.0222 4.26829 25.0227 4.44067C25.0232 4.61304 25.0576 4.78363 25.1241 4.94269C25.2269 5.17942 25.396 5.38131 25.6111 5.52394C25.8262 5.66658 26.078 5.74387 26.3361 5.74645Z" fill="#FF7810"/>
<path d="M33.9539 3.42005C34.041 3.42 34.128 3.41141 34.2134 3.39441C35.0517 3.22586 35.906 3.08359 36.7526 2.97144C37.097 2.92496 37.4089 2.74379 37.6199 2.46766C37.8308 2.19153 37.9237 1.84298 37.878 1.49848C37.8324 1.15398 37.652 0.841648 37.3763 0.629999C37.1007 0.41835 36.7524 0.324663 36.4078 0.369489C35.5035 0.489334 34.5916 0.641223 33.6969 0.820668C33.3777 0.88465 33.0936 1.065 32.8999 1.32668C32.7062 1.58837 32.6167 1.9127 32.6487 2.2367C32.6807 2.5607 32.832 2.86123 33.0732 3.07992C33.3144 3.29861 33.6283 3.41981 33.9539 3.42005Z" fill="#FF7810"/>
<path d="M19.3214 9.52238C19.5816 9.52469 19.8364 9.44856 20.0527 9.30392C20.7641 8.82518 21.4979 8.36632 22.2336 7.93886C22.5346 7.76396 22.7538 7.47665 22.843 7.14012C22.9322 6.8036 22.884 6.44543 22.7091 6.14442C22.5342 5.8434 22.2469 5.62419 21.9104 5.53501C21.5739 5.44583 21.2157 5.49399 20.9147 5.66889C20.1296 6.12519 19.3465 6.61546 18.5877 7.12624C18.3538 7.28253 18.1766 7.51 18.0822 7.77494C17.9878 8.03989 17.9813 8.32819 18.0637 8.59711C18.146 8.86604 18.3129 9.10127 18.5394 9.26793C18.766 9.4346 19.0402 9.52382 19.3214 9.52238Z" fill="#FF7810"/>
<path d="M7.39299 20.5525C7.68385 20.7414 8.03705 20.8091 8.37715 20.7411C8.71724 20.673 9.01725 20.4747 9.21306 20.1885C9.68602 19.4784 10.1904 18.7734 10.7114 18.0922C10.8164 17.9553 10.8933 17.7992 10.9379 17.6326C10.9824 17.466 10.9937 17.2922 10.9711 17.1213C10.9485 16.9503 10.8924 16.7855 10.8061 16.6362C10.7197 16.487 10.6048 16.3562 10.4679 16.2513C10.331 16.1465 10.1748 16.0697 10.0081 16.0253C9.84151 15.9808 9.66777 15.9697 9.49683 15.9924C9.3259 16.0152 9.16112 16.0714 9.01192 16.1579C8.86272 16.2443 8.73203 16.3594 8.62731 16.4964C8.07103 17.2231 7.53334 17.9755 7.02898 18.7324C6.83593 19.022 6.76583 19.3765 6.83409 19.7178C6.90235 20.0591 7.10339 20.3594 7.39299 20.5525Z" fill="#FF7810"/>
<path d="M13.1709 14.5928C13.3433 14.5943 13.5142 14.5616 13.6738 14.4966C13.8335 14.4316 13.9786 14.3357 14.101 14.2143C14.7027 13.6099 15.3346 13.0158 15.9774 12.4487C16.237 12.2181 16.3947 11.8941 16.4158 11.5476C16.437 11.201 16.32 10.8602 16.0904 10.5998C15.8608 10.3393 15.5374 10.1805 15.1909 10.158C14.8445 10.1356 14.5032 10.2513 14.242 10.4799C13.5562 11.0843 12.8827 11.7174 12.2412 12.3622C12.057 12.5449 11.9316 12.7783 11.8807 13.0327C11.8299 13.287 11.8561 13.5507 11.9559 13.7902C12.0557 14.0296 12.2246 14.2338 12.441 14.3768C12.6574 14.5197 12.9116 14.5949 13.1709 14.5928Z" fill="#FF7810"/>
<path d="M3.86824 27.7143C4.19029 27.8439 4.55034 27.8418 4.87086 27.7085C5.19138 27.5752 5.44673 27.3213 5.58193 27.0016C5.90749 26.2121 6.26443 25.4219 6.64257 24.6515C6.71891 24.4968 6.764 24.3286 6.77525 24.1564C6.78649 23.9842 6.76368 23.8115 6.70812 23.6482C6.65256 23.4848 6.56533 23.3341 6.45143 23.2045C6.33754 23.0749 6.1992 22.969 6.04435 22.8929C5.88949 22.8168 5.72116 22.772 5.54897 22.7611C5.37678 22.7501 5.20412 22.7732 5.04088 22.8291C4.87763 22.8849 4.72699 22.9724 4.59759 23.0865C4.46818 23.2006 4.36255 23.3391 4.28673 23.4941C3.88299 24.3157 3.50295 25.1585 3.1556 26.0006C3.08976 26.1599 3.05597 26.3306 3.05615 26.503C3.05634 26.6753 3.0905 26.846 3.15669 27.0052C3.22288 27.1643 3.31979 27.3089 3.44188 27.4305C3.56398 27.5522 3.70886 27.6486 3.86824 27.7143Z" fill="#FF7810"/>
<path d="M41.8872 2.6254L42 2.62476C42.8242 2.62476 43.6541 2.65039 44.4661 2.70102C44.4936 2.70294 44.5212 2.70358 44.5488 2.70358C44.8896 2.70317 45.217 2.57015 45.4615 2.33266C45.7061 2.09518 45.8486 1.77188 45.859 1.43115C45.8694 1.09043 45.7469 0.759026 45.5173 0.507064C45.2877 0.255102 44.9691 0.10235 44.6288 0.0811309C43.7662 0.0273184 42.8855 0.000193359 41.9865 -0.000244141H41.9776L41.8872 0.000412109C41.5391 0.000412109 41.2053 0.138693 40.9591 0.384834C40.713 0.630976 40.5747 0.964815 40.5747 1.31291C40.5747 1.66101 40.713 1.99485 40.9591 2.24099C41.2053 2.48713 41.5391 2.6254 41.8872 2.6254Z" fill="#FF7810"/>
<path d="M78.3379 26.8081C78.668 27.597 78.9756 28.4052 79.2518 29.2101C79.3718 29.5341 79.6118 29.7995 79.9221 29.9514C80.2324 30.1032 80.5892 30.1299 80.9187 30.0259C81.2479 29.9131 81.5188 29.674 81.6718 29.3614C81.8248 29.0488 81.8474 28.6883 81.7345 28.359C81.4397 27.499 81.1116 26.6364 80.7591 25.7942C80.6927 25.635 80.5955 25.4905 80.4732 25.3688C80.3509 25.2472 80.2058 25.1509 80.0462 25.0854C79.8866 25.0199 79.7157 24.9865 79.5432 24.9871C79.3707 24.9877 79.2 25.0223 79.0409 25.0889C78.8818 25.1555 78.7373 25.2529 78.6159 25.3754C78.4944 25.4979 78.3983 25.6431 78.333 25.8028C78.2677 25.9624 78.2345 26.1334 78.2354 26.3059C78.2362 26.4784 78.2711 26.6491 78.3379 26.8081Z" fill="#FF7810"/>
<path d="M49.5732 3.35215C50.4095 3.5149 51.2542 3.70849 52.0835 3.92702C52.4198 4.01164 52.776 3.96124 53.0756 3.78661C53.3753 3.61198 53.5947 3.32699 53.6869 2.99263C53.731 2.82599 53.7417 2.6523 53.7186 2.4815C53.6955 2.3107 53.6389 2.14613 53.5521 1.99721C53.4654 1.84828 53.3501 1.71793 53.2129 1.6136C53.0757 1.50926 52.9192 1.433 52.7526 1.38916C51.8681 1.15588 50.9671 0.949519 50.0756 0.775843C49.7345 0.710372 49.3813 0.782836 49.0934 0.97735C48.8056 1.17186 48.6066 1.47256 48.5401 1.81353C48.4736 2.1545 48.545 2.50792 48.7387 2.79634C48.9323 3.08475 49.2324 3.28463 49.5732 3.35215Z" fill="#FF7810"/>
<path d="M80.5977 34.1775C80.7656 35.0107 80.9091 35.8656 81.0238 36.7192C81.071 37.0638 81.2529 37.3756 81.5297 37.5862C81.8064 37.7967 82.1555 37.8889 82.5001 37.8424C82.8448 37.7958 83.1569 37.6145 83.3679 37.338C83.5789 37.0616 83.6717 36.7128 83.6258 36.368C83.5027 35.4586 83.3502 34.5473 83.1714 33.659C83.1018 33.3185 82.9001 33.0195 82.6104 32.8275C82.3207 32.6355 81.9667 32.5662 81.626 32.6349C81.2853 32.7035 80.9857 32.9044 80.793 33.1936C80.6002 33.4828 80.53 33.8367 80.5977 34.1775Z" fill="#FF7810"/>
<path d="M76.0444 22.2028C76.2258 22.4969 76.5133 22.7099 76.8475 22.7978C77.1816 22.8858 77.5368 22.8418 77.8395 22.6751C77.9883 22.5883 78.1187 22.4729 78.223 22.3357C78.3273 22.1985 78.4035 22.0421 78.4474 21.8754C78.4913 21.7087 78.5019 21.535 78.4786 21.3642C78.4553 21.1934 78.3986 21.0289 78.3118 20.88C77.8542 20.0956 77.3633 19.3131 76.8532 18.5556C76.7569 18.4126 76.6334 18.29 76.4897 18.1947C76.346 18.0994 76.185 18.0334 76.0158 18.0004C75.8466 17.9674 75.6726 17.968 75.5037 18.0022C75.3347 18.0364 75.1742 18.1036 75.0312 18.1999C74.8882 18.2962 74.7656 18.4197 74.6703 18.5634C74.575 18.707 74.509 18.868 74.476 19.0372C74.443 19.2064 74.4436 19.3805 74.4778 19.5494C74.512 19.7184 74.5792 19.8789 74.6755 20.0219C75.1548 20.7326 75.615 21.4664 76.0444 22.2028Z" fill="#FF7810"/>
<path d="M71.5262 15.9497C71.7605 16.2042 72.084 16.3584 72.4293 16.38C72.7745 16.4016 73.1147 16.289 73.3789 16.0657C73.6399 15.8353 73.7987 15.5108 73.8205 15.1633C73.8422 14.8159 73.7251 14.4741 73.4949 14.213C72.8912 13.5291 72.2574 12.8569 71.6108 12.2134C71.4885 12.0919 71.3435 11.9956 71.184 11.9302C71.0245 11.8647 70.8537 11.8313 70.6813 11.8318C70.5089 11.8323 70.3383 11.8668 70.1792 11.9333C70.0201 11.9998 69.8757 12.0969 69.7542 12.2192C69.6327 12.3415 69.5364 12.4865 69.4709 12.646C69.4055 12.8055 69.372 12.9763 69.3726 13.1487C69.3731 13.3211 69.4076 13.4917 69.4741 13.6508C69.5405 13.8098 69.6377 13.9543 69.76 14.0758C70.3669 14.6782 70.9609 15.3088 71.5262 15.9497Z" fill="#FF7810"/>
<path d="M56.9642 5.56828C57.7525 5.89256 58.5433 6.24889 59.3155 6.627C59.6289 6.77489 59.9876 6.79484 60.3155 6.6826C60.6433 6.57037 60.9145 6.3348 61.0715 6.02588C61.1475 5.87112 61.1921 5.70292 61.203 5.5309C61.2139 5.35887 61.1907 5.18639 61.1349 5.02331C61.0791 4.86023 60.9916 4.70975 60.8776 4.58047C60.7636 4.4512 60.6252 4.34566 60.4704 4.26989C59.6475 3.86676 58.8041 3.4867 57.964 3.14065C57.642 3.00807 57.2806 3.00881 56.9593 3.1427C56.6379 3.27659 56.3828 3.53266 56.2503 3.85459C56.1177 4.17651 56.1184 4.53792 56.2523 4.8593C56.3862 5.18068 56.6423 5.43571 56.9642 5.56828Z" fill="#FF7810"/>
<path d="M63.7813 9.19232C64.4933 9.66593 65.1989 10.1696 65.8782 10.6888C66.1581 10.8909 66.5048 10.9781 66.8471 10.9325C67.1893 10.8868 67.501 10.7118 67.7182 10.4433C67.9295 10.1667 68.0224 9.81756 67.9764 9.47253C67.9304 9.1275 67.7492 8.81487 67.4727 8.60337C66.7473 8.04902 65.9942 7.51196 65.2348 7.00695C64.945 6.81533 64.591 6.74646 64.2505 6.81543C63.91 6.8844 63.6108 7.08558 63.4183 7.37487C63.2259 7.66415 63.1561 8.01793 63.2241 8.35863C63.2922 8.69933 63.4925 8.99913 63.7813 9.19232Z" fill="#FF7810"/>
<path d="M82.1683 48.6471C81.9992 48.6135 81.8252 48.6136 81.6561 48.6473C81.487 48.681 81.3263 48.7478 81.183 48.8438C81.0398 48.9397 80.9169 49.063 80.8214 49.2065C80.7259 49.3501 80.6596 49.511 80.6264 49.6802C80.4598 50.521 80.2643 51.3651 80.0445 52.1886C79.9998 52.3552 79.9885 52.529 80.011 52.7C80.0336 52.871 80.0896 53.0359 80.1759 53.1853C80.2623 53.3346 80.3772 53.4655 80.5141 53.5704C80.6511 53.6753 80.8073 53.7522 80.974 53.7967C81.1407 53.8411 81.3145 53.8523 81.4855 53.8296C81.6565 53.8068 81.8213 53.7506 81.9706 53.6641C82.1198 53.5776 82.2506 53.4626 82.3553 53.3255C82.4601 53.1884 82.5368 53.0321 82.5811 52.8654C82.815 51.9867 83.0239 51.0863 83.2014 50.1891C83.2349 50.02 83.2347 49.846 83.2009 49.6769C83.1671 49.5079 83.1003 49.3472 83.0044 49.204C82.9084 49.0608 82.7852 48.9379 82.6418 48.8424C82.4983 48.7468 82.3374 48.6805 82.1683 48.6471Z" fill="#FF7810"/>
<path d="M42.0379 81.3747C42.0276 81.3747 42.0097 81.3747 41.9905 81.3754C41.1516 81.3754 40.3005 81.3478 39.4616 81.2946C39.2896 81.2837 39.1171 81.3067 38.9539 81.3625C38.7908 81.4182 38.6403 81.5055 38.5109 81.6194C38.3815 81.7333 38.2759 81.8716 38.1999 82.0263C38.124 82.1811 38.0793 82.3492 38.0683 82.5213C38.0574 82.6933 38.0804 82.8658 38.1362 83.0289C38.1919 83.192 38.2792 83.3426 38.3931 83.4719C38.507 83.6013 38.6453 83.707 38.8 83.7829C38.9547 83.8589 39.1229 83.9036 39.295 83.9145C40.1826 83.9709 41.083 83.9998 42.0026 83.9998C42.3543 84.0007 42.6923 83.8638 42.9443 83.6184C43.1962 83.3731 43.342 83.0388 43.3504 82.6873C43.3504 82.3392 43.2121 82.0053 42.966 81.7592C42.7198 81.513 42.386 81.3747 42.0379 81.3747Z" fill="#FF7810"/>
<path d="M57.0918 78.3798C56.3067 78.706 55.4973 79.0111 54.6873 79.2867C54.5241 79.3421 54.3734 79.4292 54.2439 79.5429C54.1143 79.6566 54.0084 79.7946 53.9322 79.9493C53.8561 80.1039 53.8111 80.272 53.7999 80.444C53.7887 80.616 53.8115 80.7885 53.867 80.9517C53.9833 81.2781 54.2222 81.5463 54.5331 81.6995C54.8439 81.8526 55.2022 81.8786 55.5319 81.772C56.3971 81.4778 57.2604 81.1522 58.0993 80.8036C58.2584 80.7375 58.403 80.6406 58.5247 80.5186C58.6464 80.3966 58.7429 80.2518 58.8087 80.0925C58.8744 79.9332 58.9081 79.7624 58.9079 79.5901C58.9077 79.4178 58.8736 79.2471 58.8074 79.088C58.7413 78.9288 58.6444 78.7843 58.5224 78.6626C58.4004 78.5408 58.2556 78.4443 58.0963 78.3786C57.937 78.3128 57.7663 78.2791 57.5939 78.2793C57.4216 78.2795 57.251 78.3137 57.0918 78.3798Z" fill="#FF7810"/>
<path d="M63.8869 74.7359C63.173 75.2146 62.4379 75.6729 61.7035 76.0984C61.5543 76.1847 61.4236 76.2996 61.3188 76.4364C61.214 76.5732 61.1373 76.7294 61.0929 76.8959C61.0485 77.0625 61.0373 77.2361 61.0601 77.4069C61.0828 77.5778 61.139 77.7425 61.2254 77.8916C61.4023 78.1901 61.6891 78.4073 62.0244 78.4967C62.3596 78.5861 62.7166 78.5405 63.0186 78.3697C63.8023 77.9159 64.5861 77.4276 65.3481 76.9174C65.637 76.7235 65.837 76.4228 65.9043 76.0815C65.9716 75.7401 65.9007 75.386 65.7071 75.0969C65.5134 74.8078 65.213 74.6074 64.8717 74.5397C64.5304 74.472 64.1762 74.5426 63.8869 74.7359Z" fill="#FF7810"/>
<path d="M49.7161 80.6197C48.8823 80.7851 48.0268 80.926 47.1738 81.0388C47.0029 81.0613 46.8381 81.1173 46.6889 81.2034C46.5396 81.2896 46.4088 81.4044 46.304 81.5412C46.1991 81.6779 46.1222 81.834 46.0777 82.0005C46.0332 82.167 46.0219 82.3407 46.0446 82.5115C46.0947 82.8545 46.2766 83.1643 46.5516 83.3752C46.8266 83.5861 47.1731 83.6814 47.5173 83.6408C48.426 83.5209 49.3374 83.371 50.2262 83.1947C50.3955 83.1614 50.5565 83.0951 50.7001 82.9995C50.8437 82.9039 50.9671 82.7809 51.0631 82.6376C51.1591 82.4943 51.226 82.3335 51.2598 82.1644C51.2937 81.9952 51.2938 81.821 51.2603 81.6518C51.2268 81.4826 51.1602 81.3217 51.0645 81.1782C50.9687 81.0347 50.8456 80.9115 50.7022 80.8157C50.5587 80.7198 50.3978 80.6532 50.2286 80.6195C50.0594 80.5859 49.8853 80.586 49.7161 80.6197Z" fill="#FF7810"/>
<path d="M69.8478 69.837C69.2428 70.442 68.6103 71.0348 67.9681 71.5994C67.8386 71.7132 67.7328 71.8513 67.6567 72.006C67.5806 72.1606 67.5358 72.3288 67.5247 72.5008C67.5136 72.6728 67.5365 72.8453 67.5922 73.0084C67.6478 73.1716 67.735 73.3221 67.8489 73.4515C68.0837 73.7047 68.4066 73.8581 68.7512 73.8803C69.0957 73.9025 69.4357 73.7917 69.701 73.5707C70.3855 72.9696 71.059 72.3377 71.7037 71.693C71.9498 71.4469 72.0881 71.1131 72.0881 70.765C72.0881 70.4169 71.9499 70.0831 71.7037 69.837C71.4576 69.5909 71.1238 69.4526 70.7758 69.4526C70.4277 69.4526 70.0939 69.5909 69.8478 69.837Z" fill="#FF7810"/>
<path d="M82.6874 40.5375C82.3393 40.5375 82.0055 40.6758 81.7593 40.9219C81.5132 41.1681 81.3749 41.5019 81.3749 41.85V41.9999C81.3749 42.8581 81.3467 43.7245 81.2915 44.5756C81.2804 44.7476 81.3033 44.9202 81.3589 45.0834C81.4145 45.2465 81.5016 45.3972 81.6154 45.5267C81.7292 45.6562 81.8674 45.762 82.022 45.8381C82.1767 45.9142 82.3449 45.959 82.5169 45.9701C82.6889 45.9813 82.8614 45.9584 83.0246 45.9028C83.1878 45.8472 83.3384 45.7601 83.4679 45.6463C83.5974 45.5325 83.7032 45.3943 83.7793 45.2397C83.8554 45.085 83.9003 44.9168 83.9114 44.7448C83.9698 43.838 83.9999 42.9145 83.9999 41.9999V41.85C83.9999 41.5019 83.8616 41.1681 83.6154 40.9219C83.3693 40.6758 83.0355 40.5375 82.6874 40.5375Z" fill="#FF7810"/>
<path d="M76.5671 63.5116C76.2778 63.3181 75.9235 63.2474 75.5821 63.3151C75.2407 63.3827 74.9401 63.5832 74.7464 63.8724C74.2702 64.5844 73.7646 65.2887 73.2442 65.9655C73.0321 66.2415 72.9383 66.5905 72.9835 66.9357C73.0287 67.2808 73.2092 67.5939 73.4852 67.8061C73.7629 68.0136 74.1106 68.1046 74.4544 68.0596C74.7982 68.0146 75.1108 67.8371 75.3257 67.5651C75.8807 66.8428 76.4197 66.0917 76.9279 65.3323C77.1215 65.043 77.1923 64.6887 77.1246 64.3472C77.0569 64.0058 76.8564 63.7052 76.5671 63.5116Z" fill="#FF7810"/>
<path d="M80.1054 56.3563C79.7838 56.2233 79.4226 56.2234 79.101 56.3565C78.7795 56.4896 78.5239 56.7449 78.3905 57.0663C78.0617 57.8597 77.7034 58.6493 77.3254 59.4132C77.1711 59.7253 77.1471 60.0858 77.2587 60.4156C77.3702 60.7454 77.6081 61.0174 77.9201 61.1718C78.233 61.3208 78.5917 61.3421 78.92 61.2311C79.2483 61.12 79.5205 60.8854 79.6786 60.577C80.0817 59.7612 80.4643 58.9185 80.8155 58.0712C80.8815 57.912 80.9155 57.7413 80.9155 57.569C80.9155 57.3966 80.8816 57.2259 80.8157 57.0667C80.7497 56.9074 80.6531 56.7627 80.5312 56.6408C80.4093 56.5189 80.2647 56.4222 80.1054 56.3563Z" fill="#FF7810"/>
<path d="M1.81948 35.4272C2.16072 35.4903 2.5131 35.4171 2.80101 35.2234C3.08892 35.0296 3.28942 34.7308 3.35947 34.3909C3.52288 33.5539 3.71708 32.7099 3.93689 31.8825C3.98108 31.7159 3.99201 31.5422 3.96906 31.3713C3.94611 31.2004 3.88973 31.0358 3.80315 30.8867C3.71656 30.7376 3.60146 30.6071 3.46441 30.5025C3.32737 30.3979 3.17107 30.3213 3.00443 30.2771C2.83779 30.2329 2.66408 30.222 2.49322 30.245C2.32236 30.2679 2.15769 30.3243 2.00862 30.4109C1.85955 30.4975 1.72899 30.6126 1.6244 30.7496C1.51981 30.8866 1.44323 31.043 1.39905 31.2096C1.16513 32.0927 0.958134 32.9938 0.783171 33.8872C0.716396 34.2288 0.78806 34.583 0.982401 34.8718C1.17674 35.1606 1.47784 35.3604 1.81948 35.4272Z" fill="#FF7810"/>
<path d="M7.91998 61.7344C7.83346 61.5854 7.71843 61.4549 7.58146 61.3503C7.44449 61.2457 7.28826 61.1691 7.12169 61.1249C6.95512 61.0806 6.78148 61.0697 6.61066 61.0926C6.43985 61.1155 6.27522 61.1718 6.12618 61.2583C5.97713 61.3448 5.84658 61.4598 5.74199 61.5968C5.63739 61.7338 5.5608 61.89 5.51658 62.0566C5.47237 62.2231 5.46139 62.3968 5.48429 62.5676C5.50718 62.7384 5.56349 62.903 5.65001 63.0521C6.10631 63.8384 6.59529 64.6216 7.10477 65.3797C7.30152 65.6652 7.60205 65.8624 7.94222 65.9294C8.2824 65.9963 8.63526 65.9276 8.92549 65.738C9.06868 65.6421 9.19156 65.5189 9.28708 65.3754C9.3826 65.2319 9.44889 65.071 9.48216 64.9019C9.51544 64.7328 9.51504 64.5588 9.48099 64.3898C9.44694 64.2209 9.37991 64.0603 9.28374 63.9173C8.80694 63.2059 8.34808 62.4721 7.91998 61.7344Z" fill="#FF7810"/>
<path d="M3.38754 49.7507C3.22028 48.9124 3.07864 48.0581 2.96649 47.2115C2.92094 46.8665 2.74019 46.5537 2.464 46.3419C2.18781 46.1302 1.83881 46.0368 1.49377 46.0823C1.14874 46.1279 0.835928 46.3086 0.62416 46.5848C0.412392 46.861 0.319013 47.21 0.364565 47.5551C0.483766 48.4587 0.635012 49.3707 0.813814 50.266C0.882142 50.6073 1.08325 50.9074 1.3729 51.1004C1.66255 51.2935 2.01701 51.3635 2.35831 51.2952C2.69961 51.2269 2.99979 51.0257 3.19281 50.7361C3.38582 50.4465 3.45587 50.092 3.38754 49.7507Z" fill="#FF7810"/>
<path d="M5.63463 57.1252C5.30458 56.3318 4.99889 55.5237 4.72652 54.7232C4.67105 54.5601 4.58399 54.4094 4.4703 54.2799C4.35661 54.1503 4.21851 54.0444 4.0639 53.9683C3.90929 53.8921 3.74119 53.8471 3.5692 53.8359C3.39721 53.8247 3.22469 53.8475 3.0615 53.9029C2.89832 53.9584 2.74765 54.0455 2.61811 54.1592C2.48857 54.2729 2.38269 54.411 2.30652 54.5656C2.23034 54.7202 2.18537 54.8883 2.17416 55.0603C2.16296 55.2323 2.18574 55.4048 2.2412 55.568C2.53216 56.4242 2.85836 57.2874 3.21212 58.1353C3.34991 58.4533 3.60632 58.705 3.92683 58.8369C4.24734 58.9688 4.60665 58.9705 4.92837 58.8415C5.08744 58.7752 5.2319 58.6782 5.35349 58.5561C5.47508 58.434 5.57141 58.2891 5.637 58.1297C5.70258 57.9703 5.73613 57.7996 5.73572 57.6272C5.73532 57.4549 5.70096 57.2843 5.63463 57.1252Z" fill="#FF7810"/>
<path d="M1.3125 43.3875C1.66059 43.3874 1.99442 43.2492 2.24056 43.003C2.48669 42.7569 2.62498 42.4231 2.625 42.075V42C2.625 41.1623 2.65125 40.3209 2.70319 39.498C2.71431 39.3258 2.69138 39.1532 2.63571 38.9899C2.58004 38.8266 2.49272 38.6758 2.37875 38.5463C2.26477 38.4168 2.12638 38.311 1.97149 38.235C1.8166 38.159 1.64824 38.1143 1.47606 38.1034C1.30387 38.0926 1.13123 38.1158 0.968013 38.1717C0.804794 38.2276 0.6542 38.3151 0.524845 38.4293C0.395489 38.5434 0.289911 38.682 0.214148 38.837C0.138385 38.992 0.0939252 39.1604 0.0833109 39.3326C0.0282187 40.2107 0 41.1079 0 42V42.075C1.74031e-05 42.423 0.138304 42.7569 0.384441 43.003C0.630579 43.2492 0.964408 43.3874 1.3125 43.3875Z" fill="#FF7810"/>
<path d="M12.4252 67.9952C12.1951 67.7339 11.8706 67.5748 11.5231 67.5528C11.1756 67.5308 10.8337 67.6477 10.5724 67.8779C10.3112 68.108 10.1521 68.4325 10.1301 68.78C10.1081 69.1274 10.225 69.4694 10.4551 69.7306C11.0608 70.4177 11.6927 71.0912 12.3348 71.7321C12.5838 71.9731 12.9169 72.1077 13.2635 72.1074C13.6101 72.107 13.9429 71.9717 14.1914 71.7302C14.4372 71.4836 14.5751 71.1496 14.5747 70.8015C14.5744 70.4533 14.4358 70.1196 14.1895 69.8736C13.5871 69.2724 12.9937 68.6405 12.4252 67.9952Z" fill="#FF7810"/>
<path d="M26.9685 78.4042C26.1783 78.078 25.3881 77.7204 24.6197 77.3417C24.3074 77.1878 23.9469 77.1643 23.6173 77.2764C23.2878 77.3884 23.0162 77.6267 22.8624 77.939C22.7086 78.2512 22.6851 78.6117 22.7971 78.9413C22.9091 79.2709 23.1475 79.5424 23.4597 79.6962C24.2794 80.1 25.1221 80.4819 25.9648 80.8306C26.2871 80.9575 26.6462 80.9543 26.9661 80.8216C27.2861 80.6888 27.542 80.437 27.6798 80.1192C27.8128 79.7974 27.8125 79.436 27.6791 79.1145C27.5457 78.7929 27.2901 78.5374 26.9685 78.4042Z" fill="#FF7810"/>
<path d="M20.1585 74.7672C19.4465 74.291 18.7415 73.7866 18.0635 73.2669C17.7873 73.0551 17.4383 72.9617 17.0932 73.0073C16.7482 73.0528 16.4353 73.2336 16.2235 73.5098C16.0118 73.786 15.9184 74.135 15.9639 74.4801C16.0095 74.8251 16.1902 75.1379 16.4664 75.3497C17.1893 75.9041 17.9411 76.4424 18.7012 76.95C18.9917 77.1397 19.345 77.2079 19.6852 77.1401C20.0255 77.0723 20.3256 76.8738 20.5212 76.5872C20.6169 76.4439 20.6835 76.2832 20.7171 76.1141C20.7506 75.9451 20.7506 75.7711 20.7169 75.6021C20.6832 75.433 20.6166 75.2723 20.5207 75.1291C20.4249 74.9858 20.3018 74.8628 20.1585 74.7672Z" fill="#FF7810"/>
<path d="M34.3556 80.6338C33.5174 80.4697 32.6733 80.2749 31.8473 80.0551C31.5111 79.9663 31.1535 80.0146 30.8529 80.1893C30.5523 80.364 30.3333 80.6508 30.244 80.9868C30.1547 81.3229 30.2024 81.6806 30.3766 81.9815C30.5508 82.2823 30.8372 82.5018 31.1731 82.5917C32.0543 82.8262 32.9554 83.0345 33.8494 83.2101C34.1906 83.2735 34.5431 83.2006 34.8313 83.0071C35.1194 82.8137 35.3202 82.5149 35.3907 82.1751C35.4577 81.8335 35.3863 81.4792 35.1922 81.1902C34.9981 80.9012 34.6972 80.7011 34.3556 80.6338Z" fill="#FF7810"/>
</g>
<defs>
<clipPath id="clip0_2080_260">
<rect width="84" height="84" fill="white"/>
</clipPath>
</defs>
</svg>
