<svg width="94" height="66" viewBox="0 0 94 66" fill="none" xmlns="http://www.w3.org/2000/svg">
<path d="M93.0601 0.726685H84.2869C83.7543 0.726685 83.3468 1.16542 83.3468 1.66679V63.3934H63.8574V57.8788V51.0167V44.3428V31.0574V22.8794V16.0173V10.346C63.8574 9.81338 63.4187 9.40585 62.9173 9.40585H54.05H45.1827H36.3153H27.448H18.5807H10.6535V1.66679C10.6535 1.13421 10.2147 0.726685 9.71335 0.726685H0.940107C0.407294 0.726685 0 1.16542 0 1.66679V64.3335C0 64.8661 0.438732 65.2736 0.940107 65.2736H5.32673H9.71335H18.5807H27.448H36.3153H45.1827H54.05H62.9173H84.2866H88.6733H93.0599C93.5925 65.2736 94 64.8349 94 64.3335V1.66679C94 1.13398 93.5615 0.726685 93.0601 0.726685ZM8.77325 10.3148V15.9861V22.8482V51.0169V57.879V63.3937H5.32673H1.87998V2.60667H8.77325V10.3148ZM46.1228 11.2861H53.0787V15.046H46.1228V11.2861ZM37.2554 11.2861H44.2113V15.046H37.2554V11.2861ZM28.3881 11.2861H35.344V15.046H28.3881V11.2861ZM19.5208 11.2861H26.4767V15.046H19.5208V11.2861ZM10.6535 11.2861H17.6094V15.046H10.6535V11.2861ZM10.6535 23.7881H17.6094V50.0454H10.6535V23.7881ZM17.6406 63.3934H10.6535V58.8186H17.6094V63.3934H17.6406ZM26.5081 63.3934H19.552V58.8186H26.5079L26.5081 63.3934ZM35.3755 63.3934H28.4196V58.8186H35.3755V63.3934ZM44.2113 63.3934H37.2554V58.8186H44.2113V63.3934ZM53.0787 63.3934H46.1228V58.8186H53.0787V63.3934ZM61.946 63.3934H54.9901V58.8186H61.946V63.3934ZM61.946 56.9389H10.6535V51.9568H61.9462V56.9389H61.946ZM19.5208 50.0768V23.8195H26.4767V50.0768H19.5208ZM28.3881 50.0768V23.8195H35.344V50.0768H28.3881ZM37.2554 50.0768V23.8195H44.2113V50.0768H37.2554ZM49.6007 45.2827H53.0787V50.0766H46.1228V23.8195H53.0787V30.1175H49.6007C49.0681 30.1175 48.6606 30.5563 48.6606 31.0577V44.343C48.6606 44.8442 49.0681 45.2827 49.6007 45.2827ZM61.946 50.0768H54.9901V45.2829H61.946V50.0768ZM61.946 43.3715H50.5406V31.9661H61.946V43.3715ZM61.946 30.0861H54.9901V23.7881H61.946V30.0861ZM61.946 21.9081H10.6535V16.926H61.9462V21.9081H61.946ZM61.946 15.046H54.9901V11.2861H61.946V15.046ZM92.12 63.3934H88.6733H85.2268V2.60667H92.12V63.3934Z" fill="#FF7810"/>
<path d="M56.2434 41.5853C58.4054 41.5853 60.1287 39.8306 60.1287 37.7001C60.1287 35.5381 58.374 33.8148 56.2434 33.8148C54.0814 33.8148 52.3582 35.5695 52.3582 37.7001C52.3582 39.8306 54.1126 41.5853 56.2434 41.5853ZM56.2434 35.6948C57.34 35.6948 58.2487 36.6035 58.2487 37.7001C58.2487 38.7967 57.34 39.7053 56.2434 39.7053C55.1468 39.7053 54.2381 38.7967 54.2381 37.7001C54.2381 36.6035 55.1468 35.6948 56.2434 35.6948Z" fill="#FF7810"/>
<path d="M80.6522 37.6687C80.6522 37.1361 80.2134 36.7286 79.7121 36.7286H69.7793L71.9728 34.5666C72.3489 34.1905 72.3489 33.5953 71.9728 33.2192C71.5967 32.8431 71.0015 32.8431 70.6254 33.2192L66.8028 36.9792C66.6148 37.1671 66.5208 37.3865 66.5208 37.6373C66.5208 37.6999 66.5522 37.7313 66.5522 37.794C66.5522 37.8566 66.5836 37.9507 66.6148 38.0133C66.646 38.076 66.6775 38.1386 66.7401 38.2013C66.7716 38.2327 66.7716 38.2639 66.8028 38.2954L66.8654 38.358L70.6254 42.118C70.8133 42.3059 71.0641 42.4 71.2835 42.4C71.5028 42.4 71.7534 42.3059 71.9416 42.118C72.3176 41.7419 72.3176 41.1467 71.9416 40.7706L69.7481 38.5771H79.6494C80.2134 38.6402 80.6522 38.2015 80.6522 37.6687Z" fill="#FF7810"/>
</svg>
