<svg width="70" height="70" viewBox="0 0 70 70" fill="none" xmlns="http://www.w3.org/2000/svg">
<path d="M52.5 28.7875C52.5 19.1384 44.6491 11.2875 35 11.2875C25.3509 11.2875 17.5 19.1384 17.5 28.7875C17.5 38.4366 25.3509 46.2875 35 46.2875C44.6491 46.2875 52.5 38.4366 52.5 28.7875ZM35 44.1C26.5563 44.1 19.6875 37.2312 19.6875 28.7875C19.6875 20.3437 26.5563 13.475 35 13.475C43.4438 13.475 50.3125 20.3437 50.3125 28.7875C50.3125 37.2312 43.4438 44.1 35 44.1Z" fill="#FF7810"/>
<path d="M67.5566 54.0575L56.2374 40.5683C56.3971 39.5817 56.5841 38.6575 56.9133 37.8634C57.3114 36.902 58.0366 35.9297 58.8055 34.9027C60.1147 33.1483 61.6 31.162 61.6 28.7875C61.6 26.413 60.1158 24.4256 58.8044 22.6713C58.0366 21.6431 57.3114 20.6719 56.9133 19.7105C56.4867 18.6845 56.2986 17.442 56.1007 16.1263C55.7627 13.8928 55.4138 11.5828 53.8092 9.97828C52.2047 8.37375 49.8936 8.02484 47.6591 7.68578C46.3444 7.48672 45.1019 7.29859 44.0771 6.87422C43.1157 6.47609 42.1444 5.74984 41.1163 4.98203C39.3619 3.67281 37.3757 2.1875 35 2.1875C32.6244 2.1875 30.6371 3.67172 28.8838 4.98313C27.8557 5.75094 26.8855 6.47609 25.9241 6.87422C24.8982 7.29969 23.6557 7.48781 22.341 7.68578C20.1064 8.02484 17.7953 8.37375 16.1908 9.97828C14.5863 11.5828 14.2374 13.8928 13.8994 16.1263C13.7003 17.442 13.5122 18.6845 13.0868 19.7105C12.6886 20.6719 11.9635 21.6431 11.1957 22.6702C9.88534 24.4245 8.40113 26.4119 8.40113 28.7875C8.40113 31.1631 9.88534 33.1494 11.1957 34.9038C11.9635 35.9308 12.6886 36.902 13.0868 37.8634C13.416 38.6575 13.603 39.5817 13.7627 40.5672L2.44347 54.0575C2.18097 54.3703 2.11425 54.8034 2.27175 55.1808C2.42925 55.5581 2.78253 55.8152 3.1905 55.8491L13.766 56.7372L16.4763 66.9988C16.5802 67.3925 16.8963 67.6977 17.2955 67.7863C17.6892 67.8759 18.1093 67.7359 18.3717 67.422L30.0825 53.4658C31.5361 54.4841 33.1494 55.3875 35.0011 55.3875C36.8528 55.3875 38.4661 54.4841 39.9197 53.4647L51.6305 67.4209C51.893 67.7348 52.313 67.8748 52.7057 67.7852C53.1049 67.6966 53.4199 67.3925 53.5249 66.9977L56.2363 56.7361L66.8117 55.848C67.2186 55.8141 67.5719 55.5559 67.7294 55.1797C67.8869 54.8013 67.8202 54.3692 67.5577 54.0564L67.5566 54.0575ZM18.0524 64.3989L15.6833 55.4324C15.5652 54.9861 15.1791 54.6613 14.7175 54.623L5.47644 53.8475L14.2352 43.4088C14.5546 44.9728 15.0577 46.4625 16.1919 47.5967C17.7964 49.2013 20.1064 49.5502 22.3399 49.8892C23.6557 50.0883 24.8982 50.2764 25.9241 50.7019C26.705 51.0256 27.4947 51.5681 28.3139 52.1708L18.0524 64.3989ZM30.1941 50.8408C29.1036 50.027 27.9771 49.1838 26.763 48.6806C25.4899 48.1534 24.0549 47.9358 22.668 47.7258C20.6971 47.4283 18.8355 47.1461 17.7396 46.0502C16.6436 44.9542 16.3625 43.0927 16.0639 41.1206C15.8539 39.7327 15.6374 38.2998 15.1091 37.0267C14.606 35.8127 13.7638 34.685 12.9489 33.5945C11.736 31.9703 10.5897 30.4358 10.5897 28.7875C10.5897 27.1392 11.736 25.6047 12.95 23.9794C13.7649 22.8889 14.606 21.7623 15.1102 20.5472C15.6374 19.2752 15.855 17.8391 16.065 16.4533C16.3625 14.4813 16.6447 12.6197 17.7407 11.5238C18.8366 10.4278 20.6992 10.1456 22.6713 9.84813C24.0582 9.63922 25.4921 9.42156 26.7652 8.89438C27.9792 8.39016 29.1058 7.54906 30.1963 6.73422C31.8205 5.52016 33.3561 4.37391 35.0044 4.37391C36.6527 4.37391 38.1872 5.52016 39.8114 6.73313C40.9019 7.54797 42.0296 8.39016 43.2447 8.89438C44.5167 9.42156 45.9517 9.63922 47.3375 9.84813C49.3096 10.1456 51.1722 10.4278 52.2682 11.5238C53.3641 12.6197 53.6452 14.4813 53.9427 16.4522C54.1527 17.8402 54.3703 19.2741 54.8975 20.5472C55.4007 21.7613 56.2428 22.89 57.0588 23.9794C58.2717 25.6036 59.418 27.1392 59.418 28.7875C59.418 30.4358 58.2717 31.9692 57.0588 33.5934C56.2439 34.6839 55.4007 35.8116 54.8975 37.0267C54.3703 38.2998 54.1527 39.7348 53.9427 41.1206C53.6452 43.0927 53.363 44.9542 52.2671 46.0502C51.1711 47.1461 49.3096 47.4283 47.3386 47.7258C45.9507 47.9358 44.5167 48.1534 43.2447 48.6806C42.0307 49.1838 40.9019 50.0259 39.8114 50.8419C38.1872 52.0538 36.6527 53.2 35.0044 53.2C33.3561 53.2 31.8216 52.0538 30.1974 50.8408H30.1941ZM55.2836 54.623C54.8232 54.6613 54.4371 54.9861 54.3178 55.4324L51.9499 64.3989L41.6872 52.1697C42.5064 51.567 43.2961 51.0245 44.0782 50.7008C45.1041 50.2742 46.3466 50.0861 47.6613 49.8881C49.8958 49.5491 52.2047 49.2002 53.8092 47.5956C54.9435 46.4614 55.4466 44.9706 55.766 43.4066L64.5258 53.8453L55.2836 54.6208V54.623Z" fill="#FF7810"/>
<path d="M45.884 26.2402C45.755 25.8442 45.4126 25.5555 45.0003 25.4953L38.7681 24.5886L35.9801 18.9416C35.6115 18.1934 34.3876 18.1934 34.019 18.9416L31.231 24.5886L24.9978 25.4953C24.5865 25.5555 24.2442 25.8431 24.1151 26.2402C23.986 26.635 24.0932 27.0703 24.3918 27.3602L28.9014 31.757L27.836 37.9652C27.766 38.3753 27.9345 38.7898 28.2714 39.0348C28.6093 39.2809 29.0545 39.3127 29.4231 39.118L34.9979 36.1867L40.5728 39.118C40.9414 39.3116 41.3865 39.2809 41.7256 39.0348C42.0625 38.7898 42.2309 38.3753 42.1598 37.9652L41.0945 31.757L45.6051 27.3602C45.9026 27.0692 46.0098 26.635 45.8818 26.2402H45.884ZM39.1585 30.5922C38.9015 30.8427 38.7834 31.2058 38.8446 31.5602L39.6321 36.1506L35.5098 33.9839C35.3501 33.8997 35.1751 33.8581 35.0012 33.8581C34.8273 33.8581 34.6512 33.8997 34.4926 33.9839L30.3703 36.1506L31.1578 31.5602C31.2179 31.2058 31.1009 30.8438 30.8428 30.5922L27.5079 27.3416L32.117 26.6711C32.4735 26.6197 32.7809 26.3955 32.9395 26.0728L35.0012 21.898L37.0629 26.0728C37.2226 26.3955 37.53 26.6197 37.8865 26.6711L42.4945 27.3416L39.1596 30.5922H39.1585Z" fill="#FF7810"/>
</svg>
