<svg width="64" height="64" viewBox="0 0 64 64" fill="none" xmlns="http://www.w3.org/2000/svg">
<path d="M63 57H55V32C55 31.4478 54.5522 31 54 31C53.4477 31 53 31.4478 53 32V57H11V32C11 31.4478 10.5522 31 10 31C9.44775 31 9 31.4478 9 32V57H1C0.447748 57 0 57.4478 0 58C0 58.5522 0.447748 59 1 59H63C63.5522 59 64 58.5522 64 58C64 57.4478 63.5522 57 63 57Z" fill="#FF7810"/>
<path d="M5.50022 31C5.74412 31 5.98872 30.9111 6.18137 30.732L31.3525 7.291C31.769 6.90235 32.4731 6.9038 32.8886 7.2949L57.8149 30.7285C58.2173 31.1065 58.8501 31.0869 59.2285 30.6851C59.6069 30.2827 59.5874 29.6499 59.185 29.2715L34.2588 5.8379C33.0854 4.7334 31.1694 4.729 29.9892 5.82765L4.81857 29.268C4.41427 29.6446 4.39182 30.2773 4.76827 30.6817C4.96507 30.893 5.23237 31 5.50022 31Z" fill="#FF7810"/>
<path d="M21.6797 22.7334L31.8745 13.2871C31.9936 13.1763 32.0786 13.105 32.1382 13.0591C32.1972 13.105 32.2817 13.1768 32.3999 13.2871L42.313 22.6631C42.7143 23.042 43.3467 23.0249 43.7265 22.6236C44.1059 22.2227 44.0884 21.5894 43.687 21.21L33.7705 11.8306C32.5844 10.7207 31.7026 10.7183 30.5146 11.8203L20.3203 21.2666C19.9153 21.6421 19.8911 22.2744 20.2666 22.6797C20.4636 22.8926 20.7314 23 21.0002 23C21.2434 23 21.4873 22.9116 21.6797 22.7334Z" fill="#FF7810"/>
<path d="M45.5 13.8667C46.0522 13.8667 46.5 13.419 46.5 12.8667V8H49.5V18C49.5 18.5522 49.9477 19 50.5 19C51.0522 19 51.5 18.5522 51.5 18V7.97755C51.5 6.8872 50.6245 6 49.5478 6H46.4521C45.3755 6 44.5 6.8872 44.5 7.97755V12.8667C44.5 13.419 44.9477 13.8667 45.5 13.8667Z" fill="#FF7810"/>
<path d="M21.8769 43.9453C22.3618 44.5406 28.1238 51.3276 30.7319 54.3989C31.0718 54.7993 31.5454 55 32.019 55C32.4844 55 32.9507 54.8061 33.291 54.4175C33.291 54.4175 41.6435 44.5342 42.123 43.9453C43.9214 41.7378 45 38.9306 45 35.8731C45 28.7632 39.1802 23 32 23C24.8198 23 19 28.7632 19 35.8731C19 38.9306 20.0786 41.7378 21.8769 43.9453ZM32 25C38.0654 25 43 29.8775 43 35.8731C43 38.3779 42.1606 40.7324 40.5722 42.6826C40.2129 43.124 34.9634 49.3399 32.0185 52.8242C24.9887 44.5459 23.6164 42.9141 23.4275 42.6822C21.8393 40.7324 21 38.3779 21 35.8731C21 29.8775 25.9345 25 32 25Z" fill="#FF7810"/>
<path d="M32 41.6347C35.2144 41.6347 37.8194 39.0556 37.8194 35.873C37.8194 32.6909 35.2144 30.1113 32 30.1113C28.7862 30.1113 26.1807 32.6909 26.1807 35.873C26.1807 39.0556 28.7862 41.6347 32 41.6347ZM32 32.1113C34.106 32.1113 35.8194 33.7988 35.8194 35.873C35.8194 37.9472 34.106 39.6347 32 39.6347C29.8941 39.6347 28.1807 37.9472 28.1807 35.873C28.1807 33.7988 29.8941 32.1113 32 32.1113Z" fill="#FF7810"/>
</svg>
