<svg width="60" height="60" viewBox="0 0 60 60" fill="none" xmlns="http://www.w3.org/2000/svg">
<path d="M1.37371 37.3021L5.49297 40.9561C5.87723 41.2969 6.06684 41.7122 6.07282 42.2257L6.1368 47.7316C6.15977 49.7264 7.60727 51.3969 9.57848 51.7038L15.0195 52.5507C15.5269 52.6296 15.9109 52.8765 16.1937 53.3053L19.2241 57.9027C20.3221 59.5682 22.4427 60.1911 24.2671 59.3835L29.3021 57.1543C29.7718 56.9464 30.2283 56.9464 30.6978 57.1543L35.7329 59.3835C36.2692 59.6209 36.831 59.7348 37.3852 59.7347C38.7156 59.7346 40.0007 59.0784 40.7759 57.9027L43.8064 53.3053C44.089 52.8765 44.4729 52.6296 44.9806 52.5507L50.4215 51.7039C52.3927 51.3971 53.8402 49.7265 53.8632 47.7319L53.9272 42.2257C53.9331 41.7123 54.1227 41.2971 54.507 40.9562L58.6263 37.3023C60.1185 35.9785 60.4332 33.7907 59.3743 32.0999L56.4513 27.4334C56.1787 26.9981 56.1136 26.5462 56.2526 26.0518L57.7425 20.7509C58.2823 18.8304 57.3641 16.8197 55.5592 15.97L50.5773 13.6247C50.1126 13.4059 49.8136 13.0608 49.6633 12.5698L48.0507 7.30488C47.4665 5.39742 45.6074 4.20211 43.6292 4.46332L38.1704 5.18367C37.6615 5.25105 37.223 5.12226 36.8309 4.79051L32.628 1.23281C31.1052 -0.0560175 28.8947 -0.0560175 27.3719 1.23281L23.1692 4.79015C22.777 5.12191 22.339 5.2507 21.8298 5.18344L16.3708 4.46308C14.3931 4.20152 12.5334 5.39707 11.9493 7.30453L10.3367 12.5698C10.1863 13.0607 9.88739 13.4058 9.42262 13.6245L4.44075 15.9697C2.63582 16.8195 1.71766 18.8302 2.25743 20.7506L3.74735 26.0516C3.88633 26.546 3.82129 26.998 3.54871 27.4332L0.625706 32.0998C-0.4332 33.7904 -0.118669 35.9783 1.37371 37.3021ZM2.61192 33.3439L5.53492 28.6774C6.16035 27.679 6.32242 26.5518 6.00367 25.4175L4.51375 20.1165C4.28137 19.2895 4.66188 18.4563 5.43907 18.0903L10.4209 15.745C11.487 15.243 12.2328 14.3824 12.5775 13.256L14.1902 7.9909C14.4416 7.16953 15.2123 6.67394 16.064 6.78668L21.5231 7.50703C22.6913 7.66125 23.7835 7.34039 24.6832 6.57914L28.8861 3.0218C29.5418 2.46679 30.4578 2.46679 31.1136 3.0218L35.3165 6.57926C36.2159 7.34051 37.3088 7.6616 38.4767 7.50703L43.9356 6.78668C44.7878 6.67418 45.558 7.16953 45.8095 7.9909L47.422 13.2557C47.7668 14.3822 48.5127 15.2429 49.5787 15.7448L54.5606 18.0902C55.3379 18.4562 55.7184 19.2894 55.4859 20.1165L53.9959 25.4175C53.6772 26.5518 53.8393 27.679 54.4647 28.6774L57.3877 33.3438C57.8438 34.0719 57.7134 34.9786 57.0707 35.5487L52.9514 39.2026C52.07 39.9845 51.5968 41.0205 51.5833 42.1984L51.5193 47.7044C51.5093 48.5636 50.9096 49.2557 50.0607 49.3878L44.6199 50.2346C43.4556 50.4158 42.4976 51.0315 41.8491 52.0152L38.8186 56.6126C38.346 57.3299 37.4668 57.588 36.6815 57.2401L31.6465 55.011C31.1077 54.7724 30.5539 54.6532 29.9997 54.6532C29.4456 54.6532 28.8916 54.7725 28.3529 55.011L23.318 57.2401C22.5326 57.5877 21.6535 57.3299 21.1807 56.6126L18.1503 52.0151C17.5018 51.0314 16.5436 50.4157 15.3796 50.2345L9.93871 49.3877C9.08981 49.2555 8.49004 48.5633 8.48008 47.7042L8.4161 42.1984C8.40262 41.0203 7.92953 39.9843 7.04793 39.2025L2.92868 35.5486C2.28625 34.9786 2.15582 34.072 2.61192 33.3439ZM30 48.2593C40.0682 48.2593 48.2593 40.0683 48.2593 30.0001C48.2593 19.932 40.0683 11.7409 30 11.7409C19.9318 11.7409 11.7407 19.9318 11.7407 30C11.7407 40.0682 19.9319 48.2593 30 48.2593ZM30 14.0845C38.7759 14.0845 45.9155 21.2242 45.9155 30C45.9155 38.7758 38.7759 45.9155 30 45.9155C21.2241 45.9155 14.0845 38.7758 14.0845 30C14.0845 21.2242 21.2241 14.0845 30 14.0845ZM20.3506 30.3173C19.893 29.8596 19.893 29.1177 20.3506 28.66C20.8082 28.2023 21.5502 28.2025 22.008 28.66L27.4007 34.0528L37.9921 23.4614C38.4498 23.0038 39.1916 23.0038 39.6495 23.4614C40.1071 23.919 40.1071 24.6611 39.6495 25.1188L28.2295 36.5388C28.0096 36.7586 27.7116 36.8821 27.4008 36.8821C27.09 36.8821 26.792 36.7586 26.5722 36.5388L20.3506 30.3173ZM30 52.0459C42.156 52.0459 52.0458 42.1562 52.0458 30C52.0458 17.8438 42.156 7.95422 30 7.95422C17.8439 7.95422 7.95414 17.8439 7.95414 30C7.95414 42.1561 17.8439 52.0459 30 52.0459ZM30 10.298C40.8638 10.298 49.7021 19.1362 49.7021 30.0001C49.7021 40.864 40.8638 49.7023 30 49.7023C19.1363 49.7023 10.2979 40.8639 10.2979 30C10.2979 19.1361 19.1363 10.298 30 10.298Z" fill="#FE7810"/>
</svg>
