<svg width="58" height="58" viewBox="0 0 58 58" fill="none" xmlns="http://www.w3.org/2000/svg">
<path fill-rule="evenodd" clip-rule="evenodd" d="M29.0001 13.1887C37.7333 13.1887 44.8113 20.2668 44.8113 29C44.8113 37.7332 37.7333 44.8113 29.0001 44.8113C20.2669 44.8113 13.1888 37.7332 13.1888 29C13.1888 20.2668 20.2669 13.1887 29.0001 13.1887ZM39.8929 37.7828C41.8313 35.3817 42.9917 32.3266 42.9917 29C42.9917 21.2718 36.7283 15.0084 29.0001 15.0084C21.2718 15.0084 15.0084 21.2718 15.0084 29C15.0084 32.3266 16.1689 35.3817 18.1072 37.7828C19.1125 34.1987 21.8382 31.3337 25.3362 30.1359C23.8167 29.0089 22.8277 27.2028 22.8277 25.176C22.8277 21.7801 25.6042 19.0036 29.0001 19.0036C32.3959 19.0036 35.1724 21.7801 35.1724 25.176C35.1724 27.2028 34.1834 29.0089 32.664 30.1359C36.1619 31.3337 38.8876 34.1987 39.8929 37.7828ZM19.6192 39.3818C22.1008 41.6255 25.3906 42.9917 29.0001 42.9917C32.6095 42.9917 35.8993 41.6255 38.3809 39.3818C37.6778 34.8322 33.7444 31.3483 29.0001 31.3483C24.2558 31.3483 20.3224 34.8322 19.6192 39.3818ZM29.0001 29.5287C31.3948 29.5287 33.3528 27.5708 33.3528 25.176C33.3528 22.7813 31.3948 20.8233 29.0001 20.8233C26.6053 20.8233 24.6473 22.7813 24.6473 25.176C24.6473 27.5708 26.6053 29.5287 29.0001 29.5287ZM55.3689 29.9098H50.1442L50.8719 30.7732C51.1954 31.1571 51.1464 31.7316 50.7623 32.0552C50.3784 32.3788 49.804 32.3298 49.4804 31.9458L47.4921 29.5863C47.2065 29.2476 47.2065 28.7524 47.4921 28.4137L49.4804 26.0542C49.804 25.6702 50.3784 25.6212 50.7623 25.9448C51.1464 26.2684 51.1954 26.8429 50.8719 27.2268L50.1442 28.0902H56.2942C56.7963 28.0902 57.204 28.4979 57.204 29C57.204 42.6997 47.4148 54.1308 34.456 56.6754C33.9634 56.7722 33.4848 56.4507 33.3881 55.9581C33.2913 55.4653 33.6128 54.9867 34.1054 54.89C45.9398 52.5662 54.9476 42.3191 55.3689 29.9098ZM28.0903 7.85582V1.70589C28.0903 1.20379 28.498 0.796082 29.0001 0.796082C42.6998 0.796082 54.1309 10.5852 56.6755 23.544C56.7723 24.0367 56.4508 24.5152 55.9581 24.612C55.4654 24.7088 54.9868 24.3873 54.89 23.8946C52.5663 12.0603 42.3191 3.05251 29.9099 2.63116V7.85582L30.7733 7.1282C31.1572 6.80465 31.7316 6.85367 32.0553 7.23772C32.3788 7.62166 32.3298 8.19609 31.9459 8.51963L29.5863 10.508C29.2476 10.7936 28.7525 10.7936 28.4138 10.508L26.0542 8.51963C25.6703 8.19609 25.6213 7.62166 25.9448 7.23772C26.2685 6.85367 26.8429 6.80465 27.2269 7.1282L28.0903 7.85582ZM2.63122 28.0902H7.85588L7.12826 27.2268C6.80472 26.8429 6.85373 26.2684 7.23778 25.9448C7.62172 25.6212 8.19615 25.6702 8.5197 26.0542L10.5081 28.4137C10.7936 28.7524 10.7936 29.2476 10.5081 29.5863L8.5197 31.9458C8.19615 32.3298 7.62172 32.3788 7.23778 32.0552C6.85373 31.7316 6.80472 31.1571 7.12826 30.7732L7.85588 29.9098H1.70595C1.20385 29.9098 0.796143 29.5021 0.796143 29C0.796143 15.3003 10.5853 3.86917 23.5441 1.32456C24.0367 1.22778 24.5153 1.54929 24.6121 2.04194C24.7089 2.53472 24.3874 3.01327 23.8946 3.11005C12.0603 5.43381 3.05257 15.6809 2.63122 28.0902ZM28.0903 55.3689V50.1442L27.2269 50.8718C26.8429 51.1954 26.2685 51.1463 25.9448 50.7623C25.6213 50.3783 25.6703 49.8039 26.0542 49.4804L28.4138 47.492C28.7525 47.2064 29.2476 47.2064 29.5863 47.492L31.9459 49.4804C32.3298 49.8039 32.3788 50.3783 32.0553 50.7623C31.7316 51.1463 31.1572 51.1954 30.7733 50.8718L29.9099 50.1442V56.2941C29.9099 56.7962 29.5022 57.2039 29.0001 57.2039C15.3004 57.2039 3.86923 47.4148 1.32462 34.456C1.22784 33.9633 1.54935 33.4848 2.04201 33.388C2.53478 33.2912 3.01333 33.6127 3.11012 34.1054C5.43387 45.9398 15.681 54.9475 28.0903 55.3689Z" fill="#FE7810"/>
</svg>
